<svg width="102" height="102" viewBox="0 0 102 102" fill="none" xmlns="http://www.w3.org/2000/svg">
<path d="M51 1L51.1913 0.53806L51 0.458804L50.8087 0.53806L51 1ZM86.3553 15.6447L86.8173 15.4533L86.738 15.262L86.5467 15.1827L86.3553 15.6447ZM101 51L101.462 51.1913L101.541 51L101.462 50.8087L101 51ZM86.3553 86.3553L86.5467 86.8173L86.738 86.738L86.8173 86.5467L86.3553 86.3553ZM51 101L50.8087 101.462L51 101.541L51.1913 101.462L51 101ZM15.6447 86.3553L15.1827 86.5467L15.262 86.738L15.4533 86.8173L15.6447 86.3553ZM1 51L0.53806 50.8087L0.458804 51L0.53806 51.1913L1 51ZM15.6447 15.6447L15.4533 15.1827L15.262 15.262L15.1827 15.4533L15.6447 15.6447ZM50.8087 1.46194L86.164 16.1066L86.5467 15.1827L51.1913 0.53806L50.8087 1.46194ZM85.8934 15.836L100.538 51.1913L101.462 50.8087L86.8173 15.4533L85.8934 15.836ZM100.538 50.8087L85.8934 86.164L86.8173 86.5467L101.462 51.1913L100.538 50.8087ZM86.164 85.8934L50.8087 100.538L51.1913 101.462L86.5467 86.8173L86.164 85.8934ZM51.1913 100.538L15.836 85.8934L15.4533 86.8173L50.8087 101.462L51.1913 100.538ZM16.1066 86.164L1.46194 50.8087L0.53806 51.1913L15.1827 86.5467L16.1066 86.164ZM1.46194 51.1913L16.1066 15.836L15.1827 15.4533L0.53806 50.8087L1.46194 51.1913ZM15.836 16.1066L51.1913 1.46194L50.8087 0.53806L15.4533 15.1827L15.836 16.1066ZM96.125 51.125C96.125 75.7636 75.6529 95.75 51 95.75V96.75C76.1908 96.75 97.125 76.3301 97.125 51.125H96.125ZM51 95.75C26.3561 95.75 6.125 75.3975 6.125 50.75H5.125C5.125 75.9462 25.8002 96.75 51 96.75V95.75ZM6.125 50.75C6.125 26.1114 26.5971 6.125 51.25 6.125V5.125C26.0592 5.125 5.125 25.5449 5.125 50.75H6.125ZM51.25 6.125C75.8939 6.125 96.125 26.4775 96.125 51.125H97.125C97.125 25.9288 76.4498 5.125 51.25 5.125V6.125Z" fill="#4B442B"/>
<g clip-path="url(#clip0_250_56)">
<path fill-rule="evenodd" clip-rule="evenodd" d="M36.0519 31.0048C33.199 31.0048 31.0879 33.5018 31.1825 36.2098C31.2732 38.8115 31.1553 42.181 30.3071 44.9289C29.4558 47.6845 28.0171 49.4306 25.6667 49.6548V52.1852C28.0171 52.4098 29.4558 54.1552 30.307 56.9111C31.1553 59.659 31.2731 63.0285 31.1824 65.6302C31.0878 68.3378 33.1989 70.8352 36.0523 70.8352H65.2854C68.1383 70.8352 70.249 68.3382 70.1544 65.6302C70.0637 63.0285 70.1816 59.659 71.0298 56.9111C71.8811 54.1552 73.3163 52.4092 75.6667 52.1852V49.6548C73.3164 49.4302 71.8812 47.6848 71.0298 44.9289C70.1815 42.1814 70.0637 38.8115 70.1544 36.2098C70.249 33.5022 68.1383 31.0048 65.2854 31.0048H36.0515H36.0519ZM59.5651 55.523C59.5651 59.2518 56.7837 61.5133 52.168 61.5133H44.3108C44.086 61.5133 43.8705 61.424 43.7115 61.2651C43.5526 61.1061 43.4633 60.8906 43.4633 60.6658V41.1743C43.4633 40.9495 43.5526 40.734 43.7115 40.5751C43.8705 40.4161 44.086 40.3268 44.3108 40.3268H52.1233C55.972 40.3268 58.4979 42.4116 58.4979 45.6124C58.4979 47.859 56.7987 49.8702 54.6339 50.2225V50.3397C57.5808 50.663 59.5651 52.704 59.5651 55.523V55.523ZM51.3113 43.0133H46.8312V49.3414H50.6045C53.5215 49.3414 55.1299 48.1668 55.1299 46.0673C55.1296 44.0997 53.7468 43.0133 51.3113 43.0133ZM46.8312 51.8522V58.826H51.4761C54.5132 58.826 56.1219 57.6073 56.1219 55.3171C56.1219 53.0268 54.4681 51.8518 51.2808 51.8518H46.8312V51.8522Z" fill="#7952B3"/>
</g>
<defs>
<clipPath id="clip0_250_56">
<rect width="50" height="39.84" fill="white" transform="translate(25.6667 31)"/>
</clipPath>
</defs>
</svg>
