<svg width="154" height="154" viewBox="0 0 154 154" fill="none" xmlns="http://www.w3.org/2000/svg">
<path d="M77 2L77.3827 1.07612L77 0.917608L76.6173 1.07612L77 2ZM130.033 23.967L130.957 23.5843L130.798 23.2016L130.416 23.0431L130.033 23.967ZM152 77L152.924 77.3827L153.082 77L152.924 76.6173L152 77ZM130.033 130.033L130.416 130.957L130.798 130.798L130.957 130.416L130.033 130.033ZM77 152L76.6173 152.924L77 153.082L77.3827 152.924L77 152ZM23.967 130.033L23.0431 130.416L23.2016 130.798L23.5843 130.957L23.967 130.033ZM2 77L1.07612 76.6173L0.917608 77L1.07612 77.3827L2 77ZM23.967 23.967L23.5843 23.0431L23.2016 23.2016L23.0431 23.5843L23.967 23.967ZM76.6173 2.92388L129.65 24.8909L130.416 23.0431L77.3827 1.07612L76.6173 2.92388ZM129.109 24.3497L151.076 77.3827L152.924 76.6173L130.957 23.5843L129.109 24.3497ZM151.076 76.6173L129.109 129.65L130.957 130.416L152.924 77.3827L151.076 76.6173ZM129.65 129.109L76.6173 151.076L77.3827 152.924L130.416 130.957L129.65 129.109ZM77.3827 151.076L24.3497 129.109L23.5843 130.957L76.6173 152.924L77.3827 151.076ZM24.8909 129.65L2.92388 76.6173L1.07612 77.3827L23.0431 130.416L24.8909 129.65ZM2.92388 77.3827L24.8909 24.3497L23.0431 23.5843L1.07612 76.6173L2.92388 77.3827ZM24.3497 24.8909L77.3827 2.92388L76.6173 1.07612L23.5843 23.0431L24.3497 24.8909ZM144.438 77.1875C144.438 114.004 113.845 143.875 77 143.875V145.875C114.921 145.875 146.438 115.137 146.438 77.1875H144.438ZM77 143.875C40.1731 143.875 9.9375 113.459 9.9375 76.625H7.9375C7.9375 114.556 39.0614 145.875 77 145.875V143.875ZM9.9375 76.625C9.9375 39.8088 40.5301 9.9375 77.375 9.9375V7.9375C39.4543 7.9375 7.9375 38.6757 7.9375 76.625H9.9375ZM77.375 9.9375C114.202 9.9375 144.438 40.3534 144.438 77.1875H146.438C146.438 39.256 115.314 7.9375 77.375 7.9375V9.9375Z" fill="#4B442B"/>
<g clip-path="url(#clip0_245_25)">
<path fill-rule="evenodd" clip-rule="evenodd" d="M54.5777 47.0071C50.2983 47.0071 47.1318 50.7527 47.2736 54.8148C47.4097 58.7172 47.2329 63.7715 45.9605 67.8933C44.6836 72.0267 42.5256 74.646 39 74.9821V78.7778C42.5256 79.1148 44.6836 81.7327 45.9604 85.8667C47.2329 89.9884 47.4095 95.0427 47.2734 98.9452C47.1316 103.007 50.2982 106.753 54.5783 106.753H98.428C102.707 106.753 105.873 103.007 105.732 98.9452C105.595 95.0427 105.772 89.9884 107.045 85.8667C108.322 81.7327 110.474 79.1137 114 78.7778V74.9821C110.474 74.6452 108.322 72.0273 107.045 67.8933C105.772 63.7721 105.595 58.7172 105.732 54.8148C105.873 50.7533 102.707 47.0071 98.428 47.0071H54.5771H54.5777ZM89.8475 83.7845C89.8475 89.3778 85.6755 92.7699 78.7519 92.7699H66.9661C66.6289 92.7699 66.3056 92.636 66.0672 92.3976C65.8288 92.1592 65.6949 91.8358 65.6949 91.4987V62.2614C65.6949 61.9243 65.8288 61.601 66.0672 61.3626C66.3056 61.1242 66.6289 60.9902 66.9661 60.9902H78.6848C84.4579 60.9902 88.2467 64.1174 88.2467 68.9186C88.2467 72.2884 85.6979 75.3053 82.4508 75.8338V76.0096C86.8711 76.4944 89.8475 79.556 89.8475 83.7845V83.7845ZM77.4668 65.0199H70.7467V74.5121H76.4067C80.7822 74.5121 83.1948 72.7502 83.1948 69.6009C83.1943 66.6495 81.1201 65.0199 77.4668 65.0199ZM70.7467 78.2783V88.7389H77.7141C82.2697 88.7389 84.6828 86.911 84.6828 83.4756C84.6828 80.0402 82.2021 78.2777 77.4211 78.2777H70.7467V78.2783Z" fill="#7952B3"/>
</g>
<defs>
<clipPath id="clip0_245_25">
<rect width="75" height="59.76" fill="white" transform="translate(39 47)"/>
</clipPath>
</defs>
</svg>
