<svg width="154" height="154" viewBox="0 0 154 154" fill="none" xmlns="http://www.w3.org/2000/svg">
<path d="M77 2L77.3827 1.07612L77 0.917608L76.6173 1.07612L77 2ZM130.033 23.967L130.957 23.5843L130.798 23.2016L130.416 23.0431L130.033 23.967ZM152 77L152.924 77.3827L153.082 77L152.924 76.6173L152 77ZM130.033 130.033L130.416 130.957L130.798 130.798L130.957 130.416L130.033 130.033ZM77 152L76.6173 152.924L77 153.082L77.3827 152.924L77 152ZM23.967 130.033L23.0431 130.416L23.2016 130.798L23.5843 130.957L23.967 130.033ZM2 77L1.07612 76.6173L0.917608 77L1.07612 77.3827L2 77ZM23.967 23.967L23.5843 23.0431L23.2016 23.2016L23.0431 23.5843L23.967 23.967ZM76.6173 2.92388L129.65 24.8909L130.416 23.0431L77.3827 1.07612L76.6173 2.92388ZM129.109 24.3497L151.076 77.3827L152.924 76.6173L130.957 23.5843L129.109 24.3497ZM151.076 76.6173L129.109 129.65L130.957 130.416L152.924 77.3827L151.076 76.6173ZM129.65 129.109L76.6173 151.076L77.3827 152.924L130.416 130.957L129.65 129.109ZM77.3827 151.076L24.3497 129.109L23.5843 130.957L76.6173 152.924L77.3827 151.076ZM24.8909 129.65L2.92388 76.6173L1.07612 77.3827L23.0431 130.416L24.8909 129.65ZM2.92388 77.3827L24.8909 24.3497L23.0431 23.5843L1.07612 76.6173L2.92388 77.3827ZM24.3497 24.8909L77.3827 2.92388L76.6173 1.07612L23.5843 23.0431L24.3497 24.8909ZM144.438 77.1875C144.438 114.004 113.845 143.875 77 143.875V145.875C114.921 145.875 146.438 115.137 146.438 77.1875H144.438ZM77 143.875C40.1731 143.875 9.9375 113.459 9.9375 76.625H7.9375C7.9375 114.556 39.0614 145.875 77 145.875V143.875ZM9.9375 76.625C9.9375 39.8088 40.5301 9.9375 77.375 9.9375V7.9375C39.4543 7.9375 7.9375 38.6757 7.9375 76.625H9.9375ZM77.375 9.9375C114.202 9.9375 144.438 40.3534 144.438 77.1875H146.438C146.438 39.256 115.314 7.9375 77.375 7.9375V9.9375Z" fill="#4B442B"/>
<g clip-path="url(#clip0_245_20)">
<path d="M45.78 117.136L39.5 40.3941L114.5 40.5483L107.859 117.136L77.2831 125.989L45.78 117.136Z" fill="#1B73BA"/>
<path d="M77.283 118.578V47.7029L108.168 47.8057L102.661 111.217L77.283 118.578Z" fill="#1C88C7"/>
<path d="M100.499 56.762H52.9868L54.2739 66.0261H76.8199L54.6344 75.5484L55.9209 84.504H88.6082L87.4239 97.011L76.3566 99.1731L66.3193 96.5997L65.5469 89.4965H56.3328L57.5679 104.269L77.3346 109.776L96.2781 103.754L98.6975 74.8789H78.6725L100.498 65.8204L100.499 56.762Z" fill="white"/>
</g>
<defs>
<clipPath id="clip0_245_20">
<rect width="75" height="85.8833" fill="white" transform="translate(39.5 40.25)"/>
</clipPath>
</defs>
</svg>
