<svg width="48" height="49" viewBox="0 0 64 63" fill="none" xmlns="http://www.w3.org/2000/svg"> 
<path d="M59.707 15.9374C56.8455 11.0345 52.964 7.1529 48.0616 4.29168C43.1585 1.43032 37.8057 0 31.9995 0C26.194 0 20.8395 1.43075 15.9374 4.29168C11.0345 7.15275 7.15319 11.0345 4.29168 15.9374C1.43061 20.8401 0 26.1939 0 31.9986C0 38.9714 2.03434 45.2416 6.10406 50.8106C10.1733 56.3801 15.4302 60.234 21.8743 62.3727C22.6244 62.5119 23.1797 62.414 23.5408 62.0814C23.9019 61.7484 24.0823 61.3313 24.0823 60.8319C24.0823 60.7486 24.0752 59.9989 24.0613 58.582C24.047 57.1651 24.0403 55.929 24.0403 54.8744L23.0819 55.0401C22.4709 55.1521 21.7001 55.1995 20.7694 55.1861C19.8392 55.1731 18.8736 55.0756 17.8738 54.8944C16.8735 54.7147 15.9432 54.2981 15.082 53.6453C14.2213 52.9925 13.6103 52.1381 13.2491 51.0832L12.8324 50.1244C12.5547 49.4861 12.1175 48.777 11.5202 47.9998C10.9229 47.2218 10.3188 46.6944 9.7078 46.4166L9.41607 46.2078C9.22168 46.069 9.04131 45.9016 8.8745 45.7074C8.70784 45.5132 8.58307 45.3188 8.49974 45.1241C8.41626 44.9293 8.48544 44.7695 8.70799 44.6441C8.93054 44.5187 9.33274 44.4579 9.91634 44.4579L10.7493 44.5824C11.3049 44.6937 11.9921 45.0263 12.8118 45.5822C13.6311 46.1376 14.3046 46.8597 14.8325 47.7482C15.4717 48.8873 16.2418 49.7554 17.145 50.3527C18.0474 50.95 18.9574 51.2481 19.8738 51.2481C20.7903 51.2481 21.5819 51.1787 22.2488 51.0405C22.915 50.9015 23.54 50.6927 24.1236 50.4151C24.3736 48.5533 25.0543 47.123 26.165 46.1232C24.5819 45.9568 23.1585 45.7062 21.8943 45.3731C20.6308 45.0394 19.3251 44.498 17.9781 43.7473C16.6304 42.9977 15.5124 42.0667 14.6238 40.9562C13.735 39.845 13.0057 38.3862 12.4366 36.5812C11.8674 34.7753 11.5826 32.6923 11.5826 30.3313C11.5826 26.9697 12.6801 24.109 14.8745 21.7478C13.8465 19.2205 13.9436 16.3873 15.1659 13.2485C15.9715 12.9982 17.1661 13.186 18.7492 13.8108C20.3326 14.4358 21.492 14.9713 22.2284 15.4152C22.9647 15.859 23.5548 16.2351 23.9993 16.5401C26.5831 15.8181 29.2495 15.4571 31.9992 15.4571C34.7489 15.4571 37.4159 15.8181 39.9998 16.5401L41.5831 15.5406C42.6658 14.8736 43.9443 14.2625 45.4157 13.7069C46.8879 13.1516 48.0136 12.9987 48.7917 13.2489C50.0412 16.3879 50.1526 19.2209 49.1243 21.7482C51.3186 24.1095 52.4165 26.9708 52.4165 30.3317C52.4165 32.6927 52.1307 34.7823 51.5623 36.602C50.9932 38.422 50.2575 39.8793 49.355 40.977C48.4516 42.0746 47.3264 42.9982 45.9794 43.7478C44.6321 44.4979 43.326 45.0393 42.0625 45.3729C40.7984 45.7065 39.3751 45.9572 37.792 46.1239C39.2359 47.3734 39.9579 49.3457 39.9579 52.04V60.8307C39.9579 61.3301 40.1316 61.7471 40.4792 62.0802C40.8264 62.4128 41.3747 62.5107 42.1248 62.3714C48.5698 60.233 53.8267 56.379 57.8958 50.8095C61.9645 45.2404 63.9996 38.9703 63.9996 31.9975C63.9981 26.1934 62.5668 20.8401 59.707 15.9374Z" fill="#E3E4F9"/>
</svg>
