<svg width="102" height="102" viewBox="0 0 102 102" fill="none" xmlns="http://www.w3.org/2000/svg">
<path d="M51 1L51.1913 0.53806L51 0.458804L50.8087 0.53806L51 1ZM86.3553 15.6447L86.8173 15.4533L86.738 15.262L86.5467 15.1827L86.3553 15.6447ZM101 51L101.462 51.1913L101.541 51L101.462 50.8087L101 51ZM86.3553 86.3553L86.5467 86.8173L86.738 86.738L86.8173 86.5467L86.3553 86.3553ZM51 101L50.8087 101.462L51 101.541L51.1913 101.462L51 101ZM15.6447 86.3553L15.1827 86.5467L15.262 86.738L15.4533 86.8173L15.6447 86.3553ZM1 51L0.53806 50.8087L0.458804 51L0.53806 51.1913L1 51ZM15.6447 15.6447L15.4533 15.1827L15.262 15.262L15.1827 15.4533L15.6447 15.6447ZM50.8087 1.46194L86.164 16.1066L86.5467 15.1827L51.1913 0.53806L50.8087 1.46194ZM85.8934 15.836L100.538 51.1913L101.462 50.8087L86.8173 15.4533L85.8934 15.836ZM100.538 50.8087L85.8934 86.164L86.8173 86.5467L101.462 51.1913L100.538 50.8087ZM86.164 85.8934L50.8087 100.538L51.1913 101.462L86.5467 86.8173L86.164 85.8934ZM51.1913 100.538L15.836 85.8934L15.4533 86.8173L50.8087 101.462L51.1913 100.538ZM16.1066 86.164L1.46194 50.8087L0.53806 51.1913L15.1827 86.5467L16.1066 86.164ZM1.46194 51.1913L16.1066 15.836L15.1827 15.4533L0.53806 50.8087L1.46194 51.1913ZM15.836 16.1066L51.1913 1.46194L50.8087 0.53806L15.4533 15.1827L15.836 16.1066ZM96.125 51.125C96.125 75.7636 75.6529 95.75 51 95.75V96.75C76.1908 96.75 97.125 76.3301 97.125 51.125H96.125ZM51 95.75C26.3561 95.75 6.125 75.3975 6.125 50.75H5.125C5.125 75.9462 25.8002 96.75 51 96.75V95.75ZM6.125 50.75C6.125 26.1114 26.5971 6.125 51.25 6.125V5.125C26.0592 5.125 5.125 25.5449 5.125 50.75H6.125ZM51.25 6.125C75.8939 6.125 96.125 26.4775 96.125 51.125H97.125C97.125 25.9288 76.4498 5.125 51.25 5.125V6.125Z" fill="#4B442B"/>
<g clip-path="url(#clip0_250_45)">
<path d="M30.1867 77.7626L26 26.5956L76 26.6985L71.573 77.7626L51.1887 83.665L30.1867 77.7626Z" fill="#E34F26"/>
<path d="M51.1887 78.7235V31.4686L71.779 31.5372L68.1073 73.8158L51.1887 78.7235Z" fill="#EF652A"/>
<path d="M66.1169 43.2739L66.7 37.0279H35.0254L36.7754 56.1771H58.6355L57.7782 64.3444L50.7774 66.2315L43.6738 64.1727L43.2964 59.2997H37.0157L37.8738 69.2517L50.777 72.8549L63.7831 69.2517L65.5331 49.8283H42.5754L41.9234 43.2739H66.1169Z" fill="white"/>
</g>
<defs>
<clipPath id="clip0_250_45">
<rect width="50" height="57.2607" fill="white" transform="translate(26 26.5)"/>
</clipPath>
</defs>
</svg>
