<svg width="25" height="25" viewBox="0 0 25 25" fill="none" xmlns="http://www.w3.org/2000/svg">
<g clip-path="url(#clip0_486_331)">
<path d="M13.9814 6.26101C13.9814 6.85647 13.4987 7.33919 12.9032 7.33919C12.3077 7.33919 11.825 6.85647 11.825 6.26101C11.825 5.66556 12.3077 5.18284 12.9032 5.18284C13.4987 5.18284 13.9814 5.66556 13.9814 6.26101Z" fill="url(#paint0_linear_486_331)"/>
<path fill-rule="evenodd" clip-rule="evenodd" d="M11.3111 1.58904C11.958 0.942139 12.9284 0.942139 12.9284 0.942139C12.9284 0.942139 13.8987 0.942139 14.5456 1.58904V3.474C15.4985 4.03677 16.1376 5.07425 16.1376 6.26101C16.1376 6.60543 16.0838 6.93727 15.984 7.24859L16.0537 7.40191C16.7287 8.88694 17.6731 11.0117 18.448 12.7637C18.8356 13.6401 19.1811 14.4237 19.4297 14.9882L19.83 15.8984C19.8578 15.9617 19.8722 16.0302 19.8722 16.0994V22.4337C19.8722 22.6741 19.7011 22.8804 19.4649 22.925C19.2286 22.9696 18.9941 22.8398 18.9065 22.6159L16.605 16.7342H14.6419C14.4249 17.4898 13.7287 18.0427 12.9033 18.0427C12.0779 18.0427 11.3816 17.4898 11.1647 16.7342H9.45734L6.89262 22.6331C6.79816 22.8503 6.5642 22.9715 6.33227 22.9232C6.10033 22.875 5.93408 22.6706 5.93408 22.4337V15.6951C5.93408 15.6237 5.94936 15.5532 5.9789 15.4882L6.09702 15.2288C6.1729 15.0622 6.28249 14.822 6.41735 14.527C6.68707 13.937 7.05795 13.1278 7.46259 12.2511C8.27052 10.5006 9.21726 8.47164 9.76047 7.3852L9.82471 7.25674C9.72332 6.94307 9.66855 6.60843 9.66855 6.26101C9.66855 5.05337 10.3304 4.00031 11.3111 3.44473V1.58904ZM13.2519 1.99314C13.3534 2.01854 13.4531 2.0526 13.5456 2.09627V2.99817C13.1376 2.96661 12.7191 2.96661 12.3111 2.99817V2.09627C12.4036 2.0526 12.5033 2.01854 12.6049 1.99314C12.7107 1.96668 12.8033 1.95357 12.8661 1.94728C12.895 1.9444 12.9164 1.94307 12.9284 1.94249C12.9404 1.94307 12.9617 1.9444 12.9906 1.94728C13.0535 1.95357 13.146 1.96668 13.2519 1.99314ZM15.1376 6.26101C15.1376 7.4951 14.1372 8.49553 12.9031 8.49553C11.669 8.49553 10.6685 7.4951 10.6685 6.26101C10.6685 5.02692 11.669 4.02649 12.9031 4.02649C14.1372 4.02649 15.1376 5.02692 15.1376 6.26101ZM16.1604 15.7342H14.6419C14.425 14.9785 13.7287 14.4255 12.9033 14.4255C12.0778 14.4255 11.3815 14.9785 11.1646 15.7342H9.88811L9.89697 15.7135C10.0887 15.266 10.3558 14.6412 10.6576 13.9326C11.2155 12.6222 11.8923 11.0231 12.429 9.72607H13.3885C13.9554 10.9822 14.695 12.5841 15.3097 13.9078C15.6419 14.6231 15.9378 15.2577 16.1507 15.7134L16.1604 15.7342ZM14.3526 9.43116C14.9097 10.6634 15.621 12.2039 16.2167 13.4867C16.5485 14.2011 16.8441 14.835 17.0567 15.2902L17.3986 16.0212L17.4059 16.0368L18.8722 19.7838V16.2044L18.5144 15.3912C18.266 14.827 17.9208 14.0439 17.5335 13.1682C16.8792 11.689 16.1054 9.94693 15.4755 8.5496C15.3442 8.6763 15.2059 8.79662 15.0728 8.9055C14.8374 9.09813 14.5848 9.28163 14.3526 9.43116ZM11.443 9.49347C10.9944 9.26287 10.6271 8.94686 10.2972 8.56222C9.75606 9.68277 9.02107 11.2607 8.37055 12.6701C7.96656 13.5454 7.5962 14.3535 7.32683 14.9427C7.19215 15.2374 7.08273 15.4772 7.00699 15.6434L6.93408 15.8035V20.0297L8.67022 16.0366L8.67098 16.0348L8.67153 16.0335L8.97776 15.3198C9.16927 14.8727 9.43612 14.2487 9.73749 13.5408C10.2739 12.281 10.9189 10.7573 11.443 9.49347ZM12.9033 17.0427C13.3499 17.0427 13.7119 16.6807 13.7119 16.2341C13.7119 15.7875 13.3499 15.4255 12.9033 15.4255C12.4567 15.4255 12.0946 15.7875 12.0946 16.2341C12.0946 16.6807 12.4567 17.0427 12.9033 17.0427Z" fill="url(#paint1_linear_486_331)"/>
</g>
<defs>
<linearGradient id="paint0_linear_486_331" x1="12.9031" y1="0.942139" x2="12.9031" y2="22.9337" gradientUnits="userSpaceOnUse">
<stop stop-color="#B1AE50"/>
<stop offset="1" stop-color="#6C5E14"/>
</linearGradient>
<linearGradient id="paint1_linear_486_331" x1="12.9031" y1="0.942139" x2="12.9031" y2="22.9337" gradientUnits="userSpaceOnUse">
<stop stop-color="#B1AE50"/>
<stop offset="1" stop-color="#6C5E14"/>
</linearGradient>
<clipPath id="clip0_486_331">
<rect width="23.2833" height="24" fill="white" transform="translate(0.970215 0.193481)"/>
</clipPath>
</defs>
</svg>
