<svg width="24" height="24" viewBox="0 0 24 24" fill="none" xmlns="http://www.w3.org/2000/svg">
<g clip-path="url(#clip0_485_137)">
<path d="M16.9775 4.5C15.0857 4.5 13.0484 4.9 11.6417 6C10.235 4.9 8.19775 4.5 6.30598 4.5C4.89928 4.5 3.40526 4.72 2.15378 5.29C1.44558 5.62 0.970215 6.33 0.970215 7.14V18.42C0.970215 19.72 2.15378 20.68 3.37616 20.36C4.3269 20.11 5.33584 20 6.30598 20C7.8194 20 9.42983 20.26 10.7298 20.92C11.3119 21.22 11.9716 21.22 12.544 20.92C13.844 20.25 15.4544 20 16.9678 20C17.9379 20 18.9469 20.11 19.8976 20.36C21.12 20.69 22.3036 19.73 22.3036 18.42V7.14C22.3036 6.33 21.8282 5.62 21.12 5.29C19.8782 4.72 18.3842 4.5 16.9775 4.5ZM20.373 17.23C20.373 17.86 19.8103 18.32 19.2088 18.21C18.4812 18.07 17.7245 18.01 16.9775 18.01C15.3283 18.01 12.9514 18.66 11.6417 19.51V8C12.9514 7.15 15.3283 6.5 16.9775 6.5C17.87 6.5 18.7529 6.59 19.5969 6.78C20.0431 6.88 20.373 7.29 20.373 7.76V17.23Z" fill="url(#paint0_linear_485_137)"/>
<path d="M13.5625 11.01C13.2521 11.01 12.9708 10.81 12.8737 10.49C12.7476 10.1 12.9611 9.66998 13.3394 9.54998C14.8334 9.04998 16.764 8.88998 18.5394 9.09998C18.9371 9.14998 19.2282 9.51998 19.1796 9.92998C19.1311 10.34 18.7722 10.64 18.3744 10.59C16.8028 10.4 15.0857 10.55 13.7857 10.98C13.7081 10.99 13.6304 11.01 13.5625 11.01Z" fill="url(#paint1_linear_485_137)"/>
<path d="M13.5625 13.67C13.2521 13.67 12.9708 13.47 12.8737 13.15C12.7476 12.76 12.9611 12.33 13.3394 12.21C14.8237 11.71 16.764 11.55 18.5394 11.76C18.9371 11.81 19.2282 12.18 19.1796 12.59C19.1311 13 18.7722 13.3 18.3744 13.25C16.8028 13.06 15.0857 13.21 13.7857 13.64C13.7081 13.66 13.6304 13.67 13.5625 13.67Z" fill="url(#paint2_linear_485_137)"/>
<path d="M13.5625 16.33C13.2521 16.33 12.9708 16.13 12.8737 15.81C12.7476 15.42 12.9611 14.99 13.3394 14.87C14.8237 14.37 16.764 14.21 18.5394 14.42C18.9371 14.47 19.2282 14.84 19.1796 15.25C19.1311 15.66 18.7722 15.95 18.3744 15.91C16.8028 15.72 15.0857 15.87 13.7857 16.3C13.7081 16.32 13.6304 16.33 13.5625 16.33Z" fill="url(#paint3_linear_485_137)"/>
</g>
<defs>
<linearGradient id="paint0_linear_485_137" x1="11.6369" y1="4.5" x2="11.6369" y2="21.145" gradientUnits="userSpaceOnUse">
<stop stop-color="#B1AE50"/>
<stop offset="1" stop-color="#6C5E14"/>
</linearGradient>
<linearGradient id="paint1_linear_485_137" x1="16.0112" y1="9.00989" x2="16.0112" y2="11.01" gradientUnits="userSpaceOnUse">
<stop stop-color="#B1AE50"/>
<stop offset="1" stop-color="#6C5E14"/>
</linearGradient>
<linearGradient id="paint2_linear_485_137" x1="16.0112" y1="11.6699" x2="16.0112" y2="13.67" gradientUnits="userSpaceOnUse">
<stop stop-color="#B1AE50"/>
<stop offset="1" stop-color="#6C5E14"/>
</linearGradient>
<linearGradient id="paint3_linear_485_137" x1="16.0112" y1="14.33" x2="16.0112" y2="16.33" gradientUnits="userSpaceOnUse">
<stop stop-color="#B1AE50"/>
<stop offset="1" stop-color="#6C5E14"/>
</linearGradient>
<clipPath id="clip0_485_137">
<rect width="23.2833" height="24" fill="white"/>
</clipPath>
</defs>
</svg>
