<svg width="24" height="24" viewBox="0 0 24 24" fill="none" xmlns="http://www.w3.org/2000/svg">
<g clip-path="url(#clip0_485_150)">
<path d="M12.2723 15.67C12.4082 15.31 12.3208 14.9 12.0492 14.62L10.0216 12.56L10.0507 12.53C11.7388 10.59 12.9417 8.36 13.6499 6H15.532C16.0559 6 16.4924 5.55 16.4924 5.01V4.99C16.4924 4.45 16.0559 4 15.532 4H9.70146V3C9.70146 2.45 9.2649 2 8.73133 2C8.19775 2 7.76119 2.45 7.76119 3V4H1.93065C1.40678 4 0.970215 4.45 0.970215 4.99C0.970215 5.54 1.40678 5.98 1.93065 5.98H11.8067C11.1567 7.92 10.1283 9.75 8.73133 11.35C7.94551 10.46 7.28582 9.49 6.73284 8.47C6.57762 8.18 6.29628 8 5.97613 8C5.30674 8 4.87987 8.75 5.20972 9.35C5.82091 10.48 6.56792 11.56 7.44104 12.56L3.20153 16.87C2.81348 17.26 2.81348 17.9 3.20153 18.29C3.57989 18.68 4.19108 18.68 4.57913 18.29L8.73133 14L10.691 16.02C11.1858 16.53 12.0298 16.34 12.2723 15.67ZM16.9775 10C16.3954 10 15.8715 10.37 15.6678 10.94L12.1074 20.74C11.8746 21.35 12.3208 22 12.9514 22C13.3298 22 13.6693 21.76 13.8052 21.39L14.6686 19H19.2767L20.1499 21.39C20.2857 21.75 20.6252 22 21.0036 22C21.6342 22 22.0804 21.35 21.8573 20.74L18.2969 10.94C18.0835 10.37 17.5596 10 16.9775 10ZM15.4059 17L16.9775 12.67L18.5491 17H15.4059Z" fill="url(#paint0_linear_485_150)"/>
</g>
<defs>
<linearGradient id="paint0_linear_485_150" x1="11.4429" y1="2" x2="11.4429" y2="22" gradientUnits="userSpaceOnUse">
<stop stop-color="#B1AE50"/>
<stop offset="1" stop-color="#6C5E14"/>
</linearGradient>
<clipPath id="clip0_485_150">
<rect width="23.2833" height="24" fill="white"/>
</clipPath>
</defs>
</svg>
