<svg width="102" height="102" viewBox="0 0 102 102" fill="none" xmlns="http://www.w3.org/2000/svg">
<path d="M51 1L51.1913 0.53806L51 0.458804L50.8087 0.53806L51 1ZM86.3553 15.6447L86.8173 15.4533L86.738 15.262L86.5467 15.1827L86.3553 15.6447ZM101 51L101.462 51.1913L101.541 51L101.462 50.8087L101 51ZM86.3553 86.3553L86.5467 86.8173L86.738 86.738L86.8173 86.5467L86.3553 86.3553ZM51 101L50.8087 101.462L51 101.541L51.1913 101.462L51 101ZM15.6447 86.3553L15.1827 86.5467L15.262 86.738L15.4533 86.8173L15.6447 86.3553ZM1 51L0.53806 50.8087L0.458804 51L0.53806 51.1913L1 51ZM15.6447 15.6447L15.4533 15.1827L15.262 15.262L15.1827 15.4533L15.6447 15.6447ZM50.8087 1.46194L86.164 16.1066L86.5467 15.1827L51.1913 0.53806L50.8087 1.46194ZM85.8934 15.836L100.538 51.1913L101.462 50.8087L86.8173 15.4533L85.8934 15.836ZM100.538 50.8087L85.8934 86.164L86.8173 86.5467L101.462 51.1913L100.538 50.8087ZM86.164 85.8934L50.8087 100.538L51.1913 101.462L86.5467 86.8173L86.164 85.8934ZM51.1913 100.538L15.836 85.8934L15.4533 86.8173L50.8087 101.462L51.1913 100.538ZM16.1066 86.164L1.46194 50.8087L0.53806 51.1913L15.1827 86.5467L16.1066 86.164ZM1.46194 51.1913L16.1066 15.836L15.1827 15.4533L0.53806 50.8087L1.46194 51.1913ZM15.836 16.1066L51.1913 1.46194L50.8087 0.53806L15.4533 15.1827L15.836 16.1066ZM96.125 51.125C96.125 75.7636 75.6529 95.75 51 95.75V96.75C76.1908 96.75 97.125 76.3301 97.125 51.125H96.125ZM51 95.75C26.3561 95.75 6.125 75.3975 6.125 50.75H5.125C5.125 75.9462 25.8002 96.75 51 96.75V95.75ZM6.125 50.75C6.125 26.1114 26.5971 6.125 51.25 6.125V5.125C26.0592 5.125 5.125 25.5449 5.125 50.75H6.125ZM51.25 6.125C75.8939 6.125 96.125 26.4775 96.125 51.125H97.125C97.125 25.9288 76.4498 5.125 51.25 5.125V6.125Z" fill="#4B442B"/>
<g clip-path="url(#clip0_250_51)">
<path d="M25.6667 25.6667H75.6667V75.6667H25.6667V25.6667Z" fill="#F0DB4F"/>
<path d="M71.5745 63.7418C71.2085 61.4604 69.7209 59.545 65.315 57.7579C63.7846 57.0545 62.0783 56.5508 61.5698 55.391C61.3891 54.7161 61.3654 54.3359 61.4794 53.9271C61.8074 52.6011 63.3901 52.1876 64.6448 52.5678C65.4528 52.8387 66.218 53.4614 66.6791 54.4547C68.8369 53.0574 68.8321 53.0669 70.3388 52.1068C69.7874 51.2513 69.4928 50.8568 69.1315 50.4909C67.834 49.0412 66.0659 48.295 63.238 48.3521C62.7485 48.4139 62.2542 48.4804 61.7646 48.5422C60.3531 48.8987 59.008 49.6401 58.219 50.6334C55.8521 53.3188 56.527 58.0193 59.4072 59.9538C62.2447 62.0831 66.4129 62.5679 66.9452 64.5593C67.4633 66.9975 65.1534 67.7865 62.8578 67.5061C61.1658 67.1544 60.2247 66.2941 59.2076 64.7304C57.335 65.8141 57.335 65.8141 55.4101 66.9215C55.8664 67.9196 56.3464 68.3711 57.1116 69.2361C60.7333 72.9101 69.7969 72.7295 71.4225 67.1686C71.4889 66.9785 71.9263 65.7047 71.5745 63.7418V63.7418ZM52.8483 48.6467H48.1715C48.1715 52.6866 48.1525 56.698 48.1525 60.738C48.1525 63.3093 48.2856 65.6667 47.8673 66.3891C47.1829 67.8102 45.4101 67.6344 44.6021 67.3586C43.7799 66.9547 43.3616 66.3796 42.8768 65.5669C42.7438 65.334 42.6439 65.1534 42.6106 65.1391C41.3417 65.9138 40.0774 66.6932 38.8083 67.468C39.4405 68.7655 40.372 69.892 41.565 70.6239C43.3473 71.6932 45.7428 72.0212 48.2476 71.4461C49.8778 70.9708 51.2846 69.987 52.0213 68.4899C53.0859 66.5269 52.8578 64.1505 52.8483 61.5222C52.872 57.2351 52.8483 52.948 52.8483 48.6467Z" fill="#323330"/>
</g>
<defs>
<clipPath id="clip0_250_51">
<rect width="50" height="50" fill="white" transform="translate(25.6667 25.6667)"/>
</clipPath>
</defs>
</svg>
