<svg width="154" height="154" viewBox="0 0 154 154" fill="none" xmlns="http://www.w3.org/2000/svg">
<path d="M77 2L77.3827 1.07612L77 0.917608L76.6173 1.07612L77 2ZM130.033 23.967L130.957 23.5843L130.798 23.2016L130.416 23.0431L130.033 23.967ZM152 77L152.924 77.3827L153.082 77L152.924 76.6173L152 77ZM130.033 130.033L130.416 130.957L130.798 130.798L130.957 130.416L130.033 130.033ZM77 152L76.6173 152.924L77 153.082L77.3827 152.924L77 152ZM23.967 130.033L23.0431 130.416L23.2016 130.798L23.5843 130.957L23.967 130.033ZM2 77L1.07612 76.6173L0.917608 77L1.07612 77.3827L2 77ZM23.967 23.967L23.5843 23.0431L23.2016 23.2016L23.0431 23.5843L23.967 23.967ZM76.6173 2.92388L129.65 24.8909L130.416 23.0431L77.3827 1.07612L76.6173 2.92388ZM129.109 24.3497L151.076 77.3827L152.924 76.6173L130.957 23.5843L129.109 24.3497ZM151.076 76.6173L129.109 129.65L130.957 130.416L152.924 77.3827L151.076 76.6173ZM129.65 129.109L76.6173 151.076L77.3827 152.924L130.416 130.957L129.65 129.109ZM77.3827 151.076L24.3497 129.109L23.5843 130.957L76.6173 152.924L77.3827 151.076ZM24.8909 129.65L2.92388 76.6173L1.07612 77.3827L23.0431 130.416L24.8909 129.65ZM2.92388 77.3827L24.8909 24.3497L23.0431 23.5843L1.07612 76.6173L2.92388 77.3827ZM24.3497 24.8909L77.3827 2.92388L76.6173 1.07612L23.5843 23.0431L24.3497 24.8909ZM144.438 77.1875C144.438 114.004 113.845 143.875 77 143.875V145.875C114.921 145.875 146.438 115.137 146.438 77.1875H144.438ZM77 143.875C40.1731 143.875 9.9375 113.459 9.9375 76.625H7.9375C7.9375 114.556 39.0614 145.875 77 145.875V143.875ZM9.9375 76.625C9.9375 39.8088 40.5301 9.9375 77.375 9.9375V7.9375C39.4543 7.9375 7.9375 38.6757 7.9375 76.625H9.9375ZM77.375 9.9375C114.202 9.9375 144.438 40.3534 144.438 77.1875H146.438C146.438 39.256 115.314 7.9375 77.375 7.9375V9.9375Z" fill="#4B442B"/>
<path d="M39 39H114V114H39V39Z" fill="#F0DB4F"/>
<path d="M107.862 96.1127C107.313 92.6906 105.081 89.8175 98.4724 87.1369C96.1767 86.0818 93.6173 85.3261 92.8545 83.5865C92.5836 82.5742 92.5479 82.0038 92.719 81.3907C93.211 79.4016 95.585 78.7814 97.4671 79.3517C98.6791 79.7581 99.8269 80.6921 100.518 82.182C103.755 80.0861 103.748 80.1003 106.008 78.6603C105.181 77.377 104.739 76.7852 104.197 76.2363C102.251 74.0619 99.5988 72.9426 95.3569 73.0281C94.6226 73.1208 93.8812 73.2205 93.1468 73.3133C91.0295 73.848 89.0118 74.9602 87.8284 76.4502C84.278 80.4782 85.2903 87.529 89.6107 90.4307C93.8669 93.6246 100.119 94.3518 100.918 97.339C101.695 100.996 98.23 102.18 94.7865 101.759C92.2485 101.232 90.837 99.9412 89.3113 97.5956C86.5024 99.2211 86.5024 99.2211 83.615 100.882C84.2994 102.379 85.0194 103.057 86.1673 104.354C91.5998 109.865 105.195 109.594 107.634 101.253C107.733 100.968 108.389 99.0571 107.862 96.1127V96.1127ZM79.7723 73.4701H72.7571C72.7571 79.53 72.7286 85.5471 72.7286 91.607C72.7286 95.4639 72.9283 99 72.3009 100.084C71.2743 102.215 68.615 101.952 67.4031 101.538C66.1697 100.932 65.5423 100.069 64.8151 98.8503C64.6155 98.501 64.4658 98.2301 64.4158 98.2087C62.5124 99.3707 60.6159 100.54 58.7124 101.702C59.6607 103.648 61.0579 105.338 62.8474 106.436C65.5209 108.04 69.114 108.532 72.8712 107.669C75.3166 106.956 77.4268 105.481 78.5318 103.235C80.1287 100.29 79.7865 96.7258 79.7723 92.7833C79.8079 86.3527 79.7723 79.9221 79.7723 73.4701Z" fill="#323330"/>
</svg>
