<svg width="169" height="52" viewBox="0 0 169 52" fill="none" xmlns="http://www.w3.org/2000/svg">
<path d="M26 1L43.6777 8.32233L51 26L43.6777 43.6777L26 51L8.32233 43.6777L1 26L8.32233 8.32233L26 1Z" stroke="#4B442B"/>
<path d="M48.8125 26.0625C48.8125 38.5234 38.4609 48.625 26 48.625C13.5391 48.625 3.3125 38.3359 3.3125 25.875C3.3125 13.4141 13.6641 3.3125 26.125 3.3125C38.5859 3.3125 48.8125 13.6016 48.8125 26.0625Z" stroke="#4B442B"/>
<path d="M26.1639 34C25.7398 34 25.4142 33.8816 25.187 33.6449C24.9598 33.4082 24.8462 33.0828 24.8462 32.6685V19.3315C24.8462 18.9025 24.9674 18.577 25.2097 18.3551C25.4521 18.1184 25.7853 18 26.2094 18C26.5881 18 26.8834 18.074 27.0955 18.2219C27.3227 18.3551 27.5271 18.5918 27.7089 18.932L33.3207 29.0735H32.5937L38.2055 18.932C38.3872 18.5918 38.5842 18.3551 38.7962 18.2219C39.0083 18.074 39.3036 18 39.6823 18C40.1064 18 40.432 18.1184 40.6592 18.3551C40.8864 18.577 41 18.9025 41 19.3315V32.6685C41 33.0828 40.8864 33.4082 40.6592 33.6449C40.4472 33.8816 40.1215 34 39.6823 34C39.2582 34 38.9325 33.8816 38.7053 33.6449C38.4781 33.4082 38.3645 33.0828 38.3645 32.6685V22.3939H38.8644L34.0932 30.8932C33.9417 31.1447 33.7827 31.3296 33.6161 31.448C33.4495 31.5663 33.2223 31.6255 32.9345 31.6255C32.6467 31.6255 32.4119 31.5663 32.2302 31.448C32.0484 31.3148 31.8894 31.1299 31.753 30.8932L26.9364 22.3717H27.4817V32.6685C27.4817 33.0828 27.3681 33.4082 27.1409 33.6449C26.9288 33.8816 26.6032 34 26.1639 34Z" fill="white"/>
<path d="M12.5133 34C12.0246 34 11.6463 33.8742 11.3783 33.6227C11.1261 33.3564 11 32.994 11 32.5354V19.4424C11 18.969 11.1261 18.614 11.3783 18.3773C11.6463 18.1258 12.0246 18 12.5133 18C13.0019 18 13.3723 18.1258 13.6245 18.3773C13.8925 18.614 14.0265 18.969 14.0265 19.4424V25.1012H14.0738L20.8598 18.7101C21.112 18.4734 21.3642 18.2959 21.6164 18.1775C21.8686 18.0592 22.1524 18 22.4676 18C22.9247 18 23.2479 18.111 23.437 18.3329C23.642 18.5548 23.7208 18.8137 23.6735 19.1096C23.642 19.4055 23.4922 19.6791 23.2242 19.9307L16.32 26.344L16.3437 25.0569L23.5553 31.9362C23.8863 32.2321 24.0597 32.5428 24.0754 32.8682C24.0912 33.1937 23.9809 33.4674 23.7444 33.6893C23.5237 33.8964 23.1927 34 22.7513 34C22.373 34 22.0657 33.926 21.8292 33.7781C21.6085 33.6301 21.3484 33.4156 21.0489 33.1345L14.0738 26.5881H14.0265V32.5354C14.0265 32.994 13.9004 33.3564 13.6482 33.6227C13.396 33.8742 13.0177 34 12.5133 34Z" fill="white"/>
<path d="M137.08 26.285C137.08 27.8557 137.2 29.306 137.441 30.636C137.682 31.9533 138.081 33.2327 138.638 34.474C139.195 35.7153 139.936 36.982 140.861 38.274C141.786 39.5533 142.932 40.934 144.3 42.416L140.804 45.57C138.803 43.8473 137.067 42.0297 135.598 40.117C134.129 38.2043 132.995 36.1143 132.197 33.847C131.399 31.5797 131 29.059 131 26.285C131 23.511 131.399 20.9903 132.197 18.723C132.995 16.4557 134.129 14.3657 135.598 12.453C137.067 10.5403 138.803 8.72267 140.804 7L144.3 10.154C143.021 11.5473 141.925 12.8837 141.013 14.163C140.101 15.4297 139.354 16.6963 138.771 17.963C138.188 19.2297 137.758 20.5407 137.479 21.896C137.213 23.2513 137.08 24.7143 137.08 26.285Z" fill="#938B6E"/>
<path d="M162.867 26.285C162.867 24.7143 162.728 23.2513 162.449 21.896C162.183 20.5407 161.759 19.2297 161.176 17.963C160.593 16.6963 159.846 15.4297 158.934 14.163C158.022 12.8837 156.926 11.5473 155.647 10.154L159.143 7C161.144 8.72267 162.88 10.5403 164.349 12.453C165.818 14.3657 166.952 16.4557 167.75 18.723C168.548 20.9903 168.947 23.511 168.947 26.285C168.947 29.059 168.548 31.5797 167.75 33.847C166.952 36.1143 165.818 38.2043 164.349 40.117C162.88 42.0297 161.144 43.8473 159.143 45.57L155.647 42.416C157.015 40.934 158.161 39.5533 159.086 38.274C160.011 36.982 160.752 35.7153 161.309 34.474C161.866 33.2327 162.265 31.9533 162.506 30.636C162.747 29.306 162.867 27.8557 162.867 26.285Z" fill="#938B6E"/>
<path d="M63.5614 39.6224C62.7327 39.6224 62.0924 39.4084 61.6404 38.9804C61.2135 38.5273 61 37.8853 61 37.0545V15.5678C61 14.7371 61.2135 14.1077 61.6404 13.6797C62.0924 13.2266 62.7327 13 63.5614 13H70.8691C75.3139 13 78.7418 14.1455 81.1525 16.4364C83.5884 18.7273 84.8063 22.0126 84.8063 26.2923C84.8063 28.4322 84.4924 30.3329 83.8646 31.9944C83.2619 33.6308 82.3579 35.0154 81.1525 36.1483C79.9722 37.2811 78.5157 38.1497 76.783 38.7538C75.0754 39.3329 73.1041 39.6224 70.8691 39.6224H63.5614ZM65.8215 35.6196H70.5677C72.1247 35.6196 73.4682 35.4308 74.5982 35.0531C75.7534 34.6503 76.7077 34.0713 77.461 33.3161C78.2395 32.5357 78.8171 31.5664 79.1938 30.4084C79.5705 29.2252 79.7588 27.8531 79.7588 26.2923C79.7588 23.1706 78.9929 20.842 77.461 19.3063C75.9292 17.7706 73.6314 17.0028 70.5677 17.0028H65.8215V35.6196Z" fill="white"/>
<path d="M98.3187 40C96.2343 40 94.4388 39.6098 92.9321 38.8294C91.4254 38.049 90.2576 36.9413 89.4289 35.5063C88.6254 34.0713 88.2236 32.372 88.2236 30.4084C88.2236 28.4951 88.6128 26.821 89.3913 25.386C90.1949 23.951 91.2872 22.8308 92.6684 22.0252C94.0747 21.1944 95.6693 20.779 97.4523 20.779C98.7581 20.779 99.9258 20.993 100.955 21.421C102.01 21.849 102.902 22.4657 103.63 23.2713C104.383 24.0769 104.948 25.0587 105.325 26.2168C105.727 27.3497 105.928 28.6336 105.928 30.0685C105.928 30.5217 105.764 30.8741 105.438 31.1259C105.137 31.3524 104.697 31.4657 104.12 31.4657H92.0281V28.7469H102.613L102.01 29.3133C102.01 28.1552 101.834 27.186 101.483 26.4056C101.156 25.6252 100.667 25.0336 100.014 24.6308C99.3859 24.2028 98.5949 23.9888 97.6406 23.9888C96.5859 23.9888 95.6819 24.2406 94.9285 24.7441C94.2003 25.2224 93.6352 25.9147 93.2334 26.821C92.8568 27.7021 92.6684 28.7594 92.6684 29.993V30.2573C92.6684 32.3217 93.1455 33.8699 94.0998 34.9021C95.0792 35.9091 96.5106 36.4126 98.394 36.4126C99.0469 36.4126 99.7752 36.3371 100.579 36.186C101.407 36.0098 102.186 35.7203 102.914 35.3175C103.442 35.0154 103.906 34.8895 104.308 34.9399C104.71 34.965 105.024 35.1035 105.25 35.3552C105.501 35.607 105.651 35.9217 105.702 36.2993C105.752 36.6517 105.677 37.0168 105.476 37.3944C105.3 37.772 104.986 38.0993 104.534 38.3762C103.655 38.9301 102.638 39.3455 101.483 39.6224C100.353 39.8741 99.298 40 98.3187 40Z" fill="white"/>
<path d="M116.821 39.9245C116.193 39.9245 115.64 39.7608 115.163 39.4336C114.711 39.1063 114.334 38.6028 114.033 37.9231L108.044 23.9888C107.818 23.435 107.73 22.9189 107.78 22.4406C107.855 21.9622 108.082 21.5846 108.458 21.3077C108.86 21.0056 109.4 20.8545 110.078 20.8545C110.655 20.8545 111.12 20.993 111.472 21.2699C111.823 21.5217 112.137 22.0126 112.413 22.7427L117.499 35.4685H116.369L121.604 22.7049C121.881 22 122.195 21.5217 122.546 21.2699C122.923 20.993 123.425 20.8545 124.053 20.8545C124.605 20.8545 125.045 21.0056 125.371 21.3077C125.698 21.5846 125.899 21.9622 125.974 22.4406C126.049 22.8937 125.961 23.3972 125.71 23.951L119.608 37.9231C119.332 38.6028 118.955 39.1063 118.478 39.4336C118.026 39.7608 117.473 39.9245 116.821 39.9245Z" fill="white"/>
</svg>
