<svg width="203" height="72" viewBox="0 0 203 72" fill="none" xmlns="http://www.w3.org/2000/svg">
<path d="M13.92 2.48L23.68 27.64C24.08 28.6533 24.5333 29.3333 25.04 29.68C25.5467 30 26.0133 30.1733 26.44 30.2V31C25.9067 30.9467 25.2533 30.92 24.48 30.92C23.7067 30.8933 22.9333 30.88 22.16 30.88C21.12 30.88 20.1467 30.8933 19.24 30.92C18.3333 30.92 17.6 30.9467 17.04 31V30.2C18.4 30.1467 19.2667 29.92 19.64 29.52C20.0133 29.0933 19.9333 28.2 19.4 26.84L11.96 6.96L12.6 6.44L5.64 24.52C5.21333 25.5867 4.96 26.4933 4.88 27.24C4.8 27.96 4.86667 28.5333 5.08 28.96C5.32 29.3867 5.70667 29.6933 6.24 29.88C6.8 30.0667 7.49333 30.1733 8.32 30.2V31C7.57333 30.9467 6.78667 30.92 5.96 30.92C5.16 30.8933 4.41333 30.88 3.72 30.88C3.05333 30.88 2.48 30.8933 2 30.92C1.54667 30.92 1.12 30.9467 0.72 31V30.2C1.25333 30.0667 1.8 29.76 2.36 29.28C2.92 28.7733 3.42667 27.92 3.88 26.72L13.28 2.48C13.3867 2.48 13.4933 2.48 13.6 2.48C13.7067 2.48 13.8133 2.48 13.92 2.48ZM18.8 19.48V20.28H6.88L7.28 19.48H18.8ZM40.7953 9.84C41.8086 9.84 42.6486 9.97333 43.3153 10.24C44.0086 10.5067 44.582 10.88 45.0353 11.36C45.542 11.8933 45.902 12.56 46.1153 13.36C46.3286 14.16 46.4353 15.24 46.4353 16.6V27.28C46.4353 28.4 46.662 29.16 47.1153 29.56C47.5953 29.96 48.382 30.16 49.4753 30.16V31C49.022 30.9733 48.3286 30.9467 47.3953 30.92C46.462 30.8667 45.5553 30.84 44.6753 30.84C43.7953 30.84 42.9286 30.8667 42.0753 30.92C41.2486 30.9467 40.622 30.9733 40.1953 31V30.16C41.1553 30.16 41.8353 29.96 42.2353 29.56C42.6353 29.16 42.8353 28.4 42.8353 27.28V15.72C42.8353 14.8933 42.7686 14.1333 42.6353 13.44C42.502 12.7467 42.1953 12.1867 41.7153 11.76C41.262 11.3333 40.5553 11.12 39.5953 11.12C38.4753 11.12 37.4886 11.44 36.6353 12.08C35.8086 12.72 35.1553 13.6 34.6753 14.72C34.222 15.8133 33.9953 17.04 33.9953 18.4V27.28C33.9953 28.4 34.1953 29.16 34.5953 29.56C34.9953 29.96 35.6753 30.16 36.6353 30.16V31C36.2086 30.9733 35.5686 30.9467 34.7153 30.92C33.8886 30.8667 33.0353 30.84 32.1553 30.84C31.2753 30.84 30.3686 30.8667 29.4353 30.92C28.502 30.9467 27.8086 30.9733 27.3553 31V30.16C28.4486 30.16 29.222 29.96 29.6753 29.56C30.1553 29.16 30.3953 28.4 30.3953 27.28V14.76C30.3953 13.56 30.182 12.68 29.7553 12.12C29.3286 11.5333 28.5286 11.24 27.3553 11.24V10.4C28.2086 10.48 29.0353 10.52 29.8353 10.52C30.6086 10.52 31.342 10.48 32.0353 10.4C32.7553 10.2933 33.4086 10.1467 33.9953 9.96V14.68C34.6886 12.8667 35.6486 11.6133 36.8753 10.92C38.1286 10.2 39.4353 9.84 40.7953 9.84ZM55.7825 0.399998C56.4758 0.399998 57.0758 0.653331 57.5825 1.16C58.0892 1.66666 58.3425 2.26666 58.3425 2.96C58.3425 3.65333 58.0892 4.25333 57.5825 4.76C57.0758 5.26667 56.4758 5.52 55.7825 5.52C55.0892 5.52 54.4892 5.26667 53.9825 4.76C53.4758 4.25333 53.2225 3.65333 53.2225 2.96C53.2225 2.26666 53.4758 1.66666 53.9825 1.16C54.4892 0.653331 55.0892 0.399998 55.7825 0.399998ZM57.8625 9.96V27.28C57.8625 28.4 58.0892 29.16 58.5425 29.56C59.0225 29.96 59.8092 30.16 60.9025 30.16V31C60.4492 30.9733 59.7558 30.9467 58.8225 30.92C57.9158 30.8667 56.9958 30.84 56.0625 30.84C55.1558 30.84 54.2358 30.8667 53.3025 30.92C52.3692 30.9467 51.6758 30.9733 51.2225 31V30.16C52.3158 30.16 53.0892 29.96 53.5425 29.56C54.0225 29.16 54.2625 28.4 54.2625 27.28V14.76C54.2625 13.56 54.0492 12.68 53.6225 12.12C53.1958 11.5333 52.3958 11.24 51.2225 11.24V10.4C52.0758 10.48 52.9025 10.52 53.7025 10.52C54.4758 10.52 55.2092 10.48 55.9025 10.4C56.6225 10.2933 57.2758 10.1467 57.8625 9.96ZM76.1413 9.84C77.0746 9.84 77.8879 9.97333 78.5813 10.24C79.2746 10.5067 79.8479 10.88 80.3013 11.36C80.8079 11.8933 81.1546 12.5867 81.3413 13.44C81.5279 14.2933 81.6213 15.3467 81.6213 16.6V27.28C81.6213 28.4 81.8479 29.16 82.3013 29.56C82.7813 29.96 83.5679 30.16 84.6613 30.16V31C84.2079 30.9733 83.5146 30.9467 82.5813 30.92C81.6479 30.8667 80.7413 30.84 79.8613 30.84C78.9813 30.84 78.1146 30.8667 77.2613 30.92C76.4346 30.9467 75.8079 30.9733 75.3813 31V30.16C76.3413 30.16 77.0213 29.96 77.4213 29.56C77.8213 29.16 78.0213 28.4 78.0213 27.28V15.72C78.0213 14.8933 77.9679 14.1333 77.8613 13.44C77.7546 12.7467 77.4879 12.1867 77.0613 11.76C76.6346 11.3333 75.9413 11.12 74.9813 11.12C73.9413 11.12 73.0079 11.44 72.1813 12.08C71.3813 12.72 70.7413 13.6 70.2613 14.72C69.8079 15.8133 69.5813 17.04 69.5813 18.4V27.28C69.5813 28.4 69.7813 29.16 70.1813 29.56C70.5813 29.96 71.2613 30.16 72.2213 30.16V31C71.7946 30.9733 71.1546 30.9467 70.3013 30.92C69.4746 30.8667 68.6213 30.84 67.7413 30.84C66.8613 30.84 65.9546 30.8667 65.0213 30.92C64.0879 30.9467 63.3946 30.9733 62.9413 31V30.16C64.0346 30.16 64.8079 29.96 65.2613 29.56C65.7413 29.16 65.9813 28.4 65.9813 27.28V14.76C65.9813 13.56 65.7679 12.68 65.3413 12.12C64.9146 11.5333 64.1146 11.24 62.9413 11.24V10.4C63.7946 10.48 64.6213 10.52 65.4213 10.52C66.1946 10.52 66.9279 10.48 67.6213 10.4C68.3413 10.2933 68.9946 10.1467 69.5813 9.96V14.68C70.2746 12.9467 71.2213 11.7067 72.4213 10.96C73.6213 10.2133 74.8613 9.84 76.1413 9.84ZM88.1813 9.84C89.1146 9.84 89.9279 9.97333 90.6213 10.24C91.3146 10.5067 91.8879 10.88 92.3413 11.36C92.8479 11.8933 93.1946 12.5867 93.3813 13.44C93.5679 14.2933 93.6613 15.3467 93.6613 16.6V27.28C93.6613 28.4 93.8879 29.16 94.3413 29.56C94.8213 29.96 95.6079 30.16 96.7013 30.16V31C96.2479 30.9733 95.5546 30.9467 94.6213 30.92C93.6879 30.8667 92.7813 30.84 91.9013 30.84C91.0213 30.84 90.1546 30.8667 89.3013 30.92C88.4746 30.9467 87.8479 30.9733 87.4213 31V30.16C88.3813 30.16 89.0613 29.96 89.4613 29.56C89.8613 29.16 90.0613 28.4 90.0613 27.28V15.72C90.0613 14.8933 90.0079 14.1333 89.9013 13.44C89.7946 12.7467 89.5279 12.1867 89.1013 11.76C88.6746 11.3333 87.9813 11.12 87.0213 11.12C85.9813 11.12 85.0479 11.44 84.2213 12.08C83.4213 12.72 82.7813 13.5867 82.3013 14.68C81.8479 15.7733 81.6213 17 81.6213 18.36L81.5013 14.64C82.2213 12.8 83.1946 11.5467 84.4213 10.88C85.6479 10.1867 86.9013 9.84 88.1813 9.84ZM104.129 31.28C103.036 31.28 102.089 31.08 101.289 30.68C100.489 30.2533 99.8757 29.6667 99.4491 28.92C99.0491 28.1733 98.8491 27.3067 98.8491 26.32C98.8491 25.1467 99.1157 24.1867 99.6491 23.44C100.209 22.6933 100.916 22.0933 101.769 21.64C102.622 21.1867 103.516 20.8133 104.449 20.52C105.409 20.2 106.316 19.9067 107.169 19.64C108.022 19.3467 108.716 19.0133 109.249 18.64C109.809 18.2667 110.089 17.7733 110.089 17.16V14.68C110.089 13.56 109.916 12.7067 109.569 12.12C109.249 11.5333 108.809 11.1467 108.249 10.96C107.689 10.7467 107.062 10.64 106.369 10.64C105.702 10.64 104.982 10.7333 104.209 10.92C103.462 11.1067 102.862 11.4933 102.409 12.08C102.916 12.1867 103.356 12.4533 103.729 12.88C104.102 13.3067 104.289 13.8533 104.289 14.52C104.289 15.1867 104.076 15.72 103.649 16.12C103.222 16.4933 102.676 16.68 102.009 16.68C101.236 16.68 100.662 16.44 100.289 15.96C99.9424 15.4533 99.7691 14.8933 99.7691 14.28C99.7691 13.5867 99.9424 13.0267 100.289 12.6C100.636 12.1733 101.076 11.7733 101.609 11.4C102.222 10.9733 103.009 10.6133 103.969 10.32C104.956 10 106.062 9.84 107.289 9.84C108.382 9.84 109.316 9.97333 110.089 10.24C110.862 10.48 111.502 10.84 112.009 11.32C112.702 11.96 113.156 12.7467 113.369 13.68C113.582 14.5867 113.689 15.68 113.689 16.96V28.08C113.689 28.7467 113.782 29.2267 113.969 29.52C114.182 29.8133 114.502 29.96 114.929 29.96C115.222 29.96 115.502 29.8933 115.769 29.76C116.036 29.6267 116.356 29.4133 116.729 29.12L117.169 29.8C116.609 30.2267 116.076 30.5867 115.569 30.88C115.062 31.1467 114.382 31.28 113.529 31.28C112.756 31.28 112.116 31.1467 111.609 30.88C111.102 30.6133 110.716 30.2267 110.449 29.72C110.209 29.1867 110.089 28.52 110.089 27.72C109.369 28.92 108.502 29.8133 107.489 30.4C106.502 30.9867 105.382 31.28 104.129 31.28ZM105.569 29.68C106.449 29.68 107.262 29.4267 108.009 28.92C108.782 28.4133 109.476 27.6533 110.089 26.64V18.8C109.769 19.2533 109.302 19.64 108.689 19.96C108.076 20.2533 107.409 20.56 106.689 20.88C105.969 21.1733 105.276 21.5333 104.609 21.96C103.969 22.36 103.436 22.8933 103.009 23.56C102.582 24.2267 102.369 25.0933 102.369 26.16C102.369 27.2267 102.649 28.08 103.209 28.72C103.796 29.36 104.582 29.68 105.569 29.68ZM122.931 0.399998C123.624 0.399998 124.224 0.653331 124.731 1.16C125.238 1.66666 125.491 2.26666 125.491 2.96C125.491 3.65333 125.238 4.25333 124.731 4.76C124.224 5.26667 123.624 5.52 122.931 5.52C122.238 5.52 121.638 5.26667 121.131 4.76C120.624 4.25333 120.371 3.65333 120.371 2.96C120.371 2.26666 120.624 1.66666 121.131 1.16C121.638 0.653331 122.238 0.399998 122.931 0.399998ZM125.011 9.96V27.28C125.011 28.4 125.238 29.16 125.691 29.56C126.171 29.96 126.958 30.16 128.051 30.16V31C127.598 30.9733 126.904 30.9467 125.971 30.92C125.064 30.8667 124.144 30.84 123.211 30.84C122.304 30.84 121.384 30.8667 120.451 30.92C119.518 30.9467 118.824 30.9733 118.371 31V30.16C119.464 30.16 120.238 29.96 120.691 29.56C121.171 29.16 121.411 28.4 121.411 27.28V14.76C121.411 13.56 121.198 12.68 120.771 12.12C120.344 11.5333 119.544 11.24 118.371 11.24V10.4C119.224 10.48 120.051 10.52 120.851 10.52C121.624 10.52 122.358 10.48 123.051 10.4C123.771 10.2933 124.424 10.1467 125.011 9.96ZM137.25 9.84C138.316 9.84 139.223 10.0133 139.97 10.36C140.716 10.7067 141.263 11.0267 141.61 11.32C142.49 12.04 143.023 11.56 143.21 9.88H144.13C144.076 10.6267 144.036 11.52 144.01 12.56C143.983 13.5733 143.97 14.9467 143.97 16.68H143.05C142.89 15.6933 142.61 14.7333 142.21 13.8C141.836 12.8667 141.276 12.1067 140.53 11.52C139.783 10.9067 138.81 10.6 137.61 10.6C136.676 10.6 135.89 10.8667 135.25 11.4C134.636 11.9067 134.33 12.6667 134.33 13.68C134.33 14.48 134.57 15.1733 135.05 15.76C135.53 16.32 136.156 16.8533 136.93 17.36C137.703 17.84 138.543 18.3733 139.45 18.96C140.463 19.6 141.383 20.2533 142.21 20.92C143.036 21.5867 143.69 22.32 144.17 23.12C144.676 23.92 144.93 24.8667 144.93 25.96C144.93 27.1867 144.61 28.2133 143.97 29.04C143.33 29.8667 142.49 30.4933 141.45 30.92C140.436 31.3467 139.316 31.56 138.09 31.56C137.503 31.56 136.943 31.5067 136.41 31.4C135.903 31.32 135.41 31.1867 134.93 31C134.663 30.8667 134.383 30.7067 134.09 30.52C133.823 30.3333 133.556 30.1333 133.29 29.92C133.023 29.7067 132.783 29.72 132.57 29.96C132.356 30.1733 132.196 30.6133 132.09 31.28H131.17C131.223 30.4267 131.263 29.3867 131.29 28.16C131.316 26.9333 131.33 25.3067 131.33 23.28H132.25C132.436 24.7733 132.703 26.08 133.05 27.2C133.396 28.32 133.943 29.2 134.69 29.84C135.436 30.4533 136.476 30.76 137.81 30.76C138.343 30.76 138.876 30.64 139.41 30.4C139.97 30.16 140.436 29.76 140.81 29.2C141.183 28.64 141.37 27.8933 141.37 26.96C141.37 25.7867 140.943 24.8267 140.09 24.08C139.236 23.3333 138.156 22.5467 136.85 21.72C135.89 21.1067 134.983 20.4933 134.13 19.88C133.303 19.2667 132.623 18.5733 132.09 17.8C131.583 17.0267 131.33 16.0933 131.33 15C131.33 13.8 131.596 12.8267 132.13 12.08C132.69 11.3067 133.423 10.7467 134.33 10.4C135.236 10.0267 136.21 9.84 137.25 9.84ZM22.64 42.68C22.5333 43.6933 22.4533 44.68 22.4 45.64C22.3733 46.5733 22.36 47.2933 22.36 47.8C22.36 48.44 22.3733 49.04 22.4 49.6C22.4267 50.16 22.4533 50.6533 22.48 51.08H21.56C21.3733 49.2133 21.12 47.7467 20.8 46.68C20.48 45.5867 19.92 44.8 19.12 44.32C18.32 43.84 17.08 43.6 15.4 43.6H12.88C11.9733 43.6 11.28 43.68 10.8 43.84C10.3467 43.9733 10.04 44.28 9.88 44.76C9.72 45.2133 9.64 45.9333 9.64 46.92V66.76C9.64 67.72 9.73333 68.44 9.92 68.92C10.1333 69.4 10.5333 69.72 11.12 69.88C11.7067 70.04 12.56 70.1467 13.68 70.2V71C12.9867 70.9467 12.1067 70.92 11.04 70.92C9.97333 70.8933 8.89333 70.88 7.8 70.88C6.76 70.88 5.78667 70.8933 4.88 70.92C3.97333 70.92 3.24 70.9467 2.68 71V70.2C3.58667 70.1467 4.26667 70.04 4.72 69.88C5.2 69.72 5.52 69.4 5.68 68.92C5.84 68.44 5.92 67.72 5.92 66.76V46.92C5.92 45.9333 5.84 45.2133 5.68 44.76C5.52 44.28 5.2 43.96 4.72 43.8C4.26667 43.6133 3.58667 43.5067 2.68 43.48V42.68C3.66667 42.7067 4.70667 42.7333 5.8 42.76C6.89333 42.76 7.97333 42.7733 9.04 42.8C10.1067 42.8 11.0933 42.8 12 42.8C12.9333 42.8 13.6933 42.8 14.28 42.8C15.5067 42.8 16.8933 42.8 18.44 42.8C20.0133 42.7733 21.4133 42.7333 22.64 42.68ZM16.44 56.76C16.44 56.76 16.44 56.8933 16.44 57.16C16.44 57.4267 16.44 57.56 16.44 57.56H8.44C8.44 57.56 8.44 57.4267 8.44 57.16C8.44 56.8933 8.44 56.76 8.44 56.76H16.44ZM17.2 51.48C17.0933 53 17.04 54.16 17.04 54.96C17.0667 55.76 17.08 56.4933 17.08 57.16C17.08 57.8267 17.0933 58.56 17.12 59.36C17.1467 60.16 17.2133 61.32 17.32 62.84H16.4C16.2933 61.9867 16.16 61.16 16 60.36C15.8667 59.5333 15.5467 58.8667 15.04 58.36C14.56 57.8267 13.7333 57.56 12.56 57.56V56.76C13.44 56.76 14.1067 56.5867 14.56 56.24C15.04 55.8667 15.3867 55.4 15.6 54.84C15.8133 54.28 15.96 53.7067 16.04 53.12C16.12 52.5067 16.2 51.96 16.28 51.48H17.2ZM30.0666 71.28C28.9732 71.28 28.0266 71.08 27.2266 70.68C26.4266 70.2533 25.8132 69.6667 25.3866 68.92C24.9866 68.1733 24.7866 67.3067 24.7866 66.32C24.7866 65.1467 25.0532 64.1867 25.5866 63.44C26.1466 62.6933 26.8532 62.0933 27.7066 61.64C28.5599 61.1867 29.4532 60.8133 30.3866 60.52C31.3466 60.2 32.2532 59.9067 33.1066 59.64C33.9599 59.3467 34.6532 59.0133 35.1866 58.64C35.7466 58.2667 36.0266 57.7733 36.0266 57.16V54.68C36.0266 53.56 35.8532 52.7067 35.5066 52.12C35.1866 51.5333 34.7466 51.1467 34.1866 50.96C33.6266 50.7467 32.9999 50.64 32.3066 50.64C31.6399 50.64 30.9199 50.7333 30.1466 50.92C29.3999 51.1067 28.7999 51.4933 28.3466 52.08C28.8532 52.1867 29.2932 52.4533 29.6666 52.88C30.0399 53.3067 30.2266 53.8533 30.2266 54.52C30.2266 55.1867 30.0132 55.72 29.5866 56.12C29.1599 56.4933 28.6132 56.68 27.9466 56.68C27.1732 56.68 26.5999 56.44 26.2266 55.96C25.8799 55.4533 25.7066 54.8933 25.7066 54.28C25.7066 53.5867 25.8799 53.0267 26.2266 52.6C26.5732 52.1733 27.0132 51.7733 27.5466 51.4C28.1599 50.9733 28.9466 50.6133 29.9066 50.32C30.8932 50 31.9999 49.84 33.2266 49.84C34.3199 49.84 35.2532 49.9733 36.0266 50.24C36.7999 50.48 37.4399 50.84 37.9466 51.32C38.6399 51.96 39.0932 52.7467 39.3066 53.68C39.5199 54.5867 39.6266 55.68 39.6266 56.96V68.08C39.6266 68.7467 39.7199 69.2267 39.9066 69.52C40.1199 69.8133 40.4399 69.96 40.8666 69.96C41.1599 69.96 41.4399 69.8933 41.7066 69.76C41.9732 69.6267 42.2932 69.4133 42.6666 69.12L43.1066 69.8C42.5466 70.2267 42.0132 70.5867 41.5066 70.88C40.9999 71.1467 40.3199 71.28 39.4666 71.28C38.6932 71.28 38.0532 71.1467 37.5466 70.88C37.0399 70.6133 36.6532 70.2267 36.3866 69.72C36.1466 69.1867 36.0266 68.52 36.0266 67.72C35.3066 68.92 34.4399 69.8133 33.4266 70.4C32.4399 70.9867 31.3199 71.28 30.0666 71.28ZM31.5066 69.68C32.3866 69.68 33.1999 69.4267 33.9466 68.92C34.7199 68.4133 35.4132 67.6533 36.0266 66.64V58.8C35.7066 59.2533 35.2399 59.64 34.6266 59.96C34.0132 60.2533 33.3466 60.56 32.6266 60.88C31.9066 61.1733 31.2132 61.5333 30.5466 61.96C29.9066 62.36 29.3732 62.8933 28.9466 63.56C28.5199 64.2267 28.3066 65.0933 28.3066 66.16C28.3066 67.2267 28.5866 68.08 29.1466 68.72C29.7332 69.36 30.5199 69.68 31.5066 69.68ZM57.7484 49.84C58.7618 49.84 59.6018 49.9733 60.2684 50.24C60.9618 50.5067 61.5351 50.88 61.9884 51.36C62.4951 51.8933 62.8551 52.56 63.0684 53.36C63.2818 54.16 63.3884 55.24 63.3884 56.6V67.28C63.3884 68.4 63.6151 69.16 64.0684 69.56C64.5484 69.96 65.3351 70.16 66.4284 70.16V71C65.9751 70.9733 65.2818 70.9467 64.3484 70.92C63.4151 70.8667 62.5084 70.84 61.6284 70.84C60.7484 70.84 59.8818 70.8667 59.0284 70.92C58.2018 70.9467 57.5751 70.9733 57.1484 71V70.16C58.1084 70.16 58.7884 69.96 59.1884 69.56C59.5884 69.16 59.7884 68.4 59.7884 67.28V55.72C59.7884 54.8933 59.7218 54.1333 59.5884 53.44C59.4551 52.7467 59.1484 52.1867 58.6684 51.76C58.2151 51.3333 57.5084 51.12 56.5484 51.12C55.4284 51.12 54.4418 51.44 53.5884 52.08C52.7618 52.72 52.1084 53.6 51.6284 54.72C51.1751 55.8133 50.9484 57.04 50.9484 58.4V67.28C50.9484 68.4 51.1484 69.16 51.5484 69.56C51.9484 69.96 52.6284 70.16 53.5884 70.16V71C53.1618 70.9733 52.5218 70.9467 51.6684 70.92C50.8418 70.8667 49.9884 70.84 49.1084 70.84C48.2284 70.84 47.3218 70.8667 46.3884 70.92C45.4551 70.9467 44.7618 70.9733 44.3084 71V70.16C45.4018 70.16 46.1751 69.96 46.6284 69.56C47.1084 69.16 47.3484 68.4 47.3484 67.28V54.76C47.3484 53.56 47.1351 52.68 46.7084 52.12C46.2818 51.5333 45.4818 51.24 44.3084 51.24V50.4C45.1618 50.48 45.9884 50.52 46.7884 50.52C47.5618 50.52 48.2951 50.48 48.9884 50.4C49.7084 50.2933 50.3618 50.1467 50.9484 49.96V54.68C51.6418 52.8667 52.6018 51.6133 53.8284 50.92C55.0818 50.2 56.3884 49.84 57.7484 49.84ZM74.6156 43.76V50.44H80.5356V51.24H74.6156V66.72C74.6156 67.9733 74.8423 68.8533 75.2956 69.36C75.749 69.8667 76.3756 70.12 77.1756 70.12C77.9756 70.12 78.669 69.8 79.2556 69.16C79.8423 68.4933 80.349 67.3867 80.7756 65.84L81.5756 66.04C81.309 67.5867 80.7756 68.8933 79.9756 69.96C79.2023 71.0267 78.0023 71.56 76.3756 71.56C75.469 71.56 74.7223 71.44 74.1356 71.2C73.549 70.9867 73.029 70.6667 72.5756 70.24C71.989 69.6267 71.5756 68.8933 71.3356 68.04C71.1223 67.1867 71.0156 66.0533 71.0156 64.64V51.24H67.1756V50.44H71.0156V44.32C71.6823 44.2933 72.3223 44.24 72.9356 44.16C73.549 44.08 74.109 43.9467 74.6156 43.76ZM87.9963 71.28C86.9029 71.28 85.9563 71.08 85.1563 70.68C84.3563 70.2533 83.7429 69.6667 83.3163 68.92C82.9163 68.1733 82.7163 67.3067 82.7163 66.32C82.7163 65.1467 82.9829 64.1867 83.5163 63.44C84.0763 62.6933 84.7829 62.0933 85.6363 61.64C86.4896 61.1867 87.3829 60.8133 88.3163 60.52C89.2763 60.2 90.1829 59.9067 91.0363 59.64C91.8896 59.3467 92.5829 59.0133 93.1163 58.64C93.6763 58.2667 93.9563 57.7733 93.9563 57.16V54.68C93.9563 53.56 93.7829 52.7067 93.4363 52.12C93.1163 51.5333 92.6763 51.1467 92.1163 50.96C91.5563 50.7467 90.9296 50.64 90.2363 50.64C89.5696 50.64 88.8496 50.7333 88.0763 50.92C87.3296 51.1067 86.7296 51.4933 86.2763 52.08C86.7829 52.1867 87.2229 52.4533 87.5963 52.88C87.9696 53.3067 88.1563 53.8533 88.1563 54.52C88.1563 55.1867 87.9429 55.72 87.5163 56.12C87.0896 56.4933 86.5429 56.68 85.8763 56.68C85.1029 56.68 84.5296 56.44 84.1563 55.96C83.8096 55.4533 83.6363 54.8933 83.6363 54.28C83.6363 53.5867 83.8096 53.0267 84.1563 52.6C84.5029 52.1733 84.9429 51.7733 85.4763 51.4C86.0896 50.9733 86.8763 50.6133 87.8363 50.32C88.8229 50 89.9296 49.84 91.1562 49.84C92.2496 49.84 93.1829 49.9733 93.9563 50.24C94.7296 50.48 95.3696 50.84 95.8763 51.32C96.5696 51.96 97.0229 52.7467 97.2363 53.68C97.4496 54.5867 97.5563 55.68 97.5563 56.96V68.08C97.5563 68.7467 97.6496 69.2267 97.8363 69.52C98.0496 69.8133 98.3696 69.96 98.7963 69.96C99.0896 69.96 99.3696 69.8933 99.6363 69.76C99.9029 69.6267 100.223 69.4133 100.596 69.12L101.036 69.8C100.476 70.2267 99.9429 70.5867 99.4363 70.88C98.9296 71.1467 98.2496 71.28 97.3963 71.28C96.6229 71.28 95.9829 71.1467 95.4763 70.88C94.9696 70.6133 94.5829 70.2267 94.3163 69.72C94.0763 69.1867 93.9563 68.52 93.9563 67.72C93.2363 68.92 92.3696 69.8133 91.3563 70.4C90.3696 70.9867 89.2496 71.28 87.9963 71.28ZM89.4363 69.68C90.3163 69.68 91.1296 69.4267 91.8763 68.92C92.6496 68.4133 93.3429 67.6533 93.9563 66.64V58.8C93.6363 59.2533 93.1696 59.64 92.5563 59.96C91.9429 60.2533 91.2763 60.56 90.5563 60.88C89.8363 61.1733 89.1429 61.5333 88.4763 61.96C87.8363 62.36 87.3029 62.8933 86.8763 63.56C86.4496 64.2267 86.2363 65.0933 86.2363 66.16C86.2363 67.2267 86.5163 68.08 87.0763 68.72C87.6629 69.36 88.4496 69.68 89.4363 69.68ZM95.2763 38.48C95.5963 38.7467 95.7696 39.0933 95.7963 39.52C95.8496 39.9467 95.6763 40.4267 95.2763 40.96C94.8763 41.4667 94.3829 41.9733 93.7963 42.48C93.2096 42.9867 92.5162 43.6 91.7162 44.32C90.9429 45.0133 90.0229 45.92 88.9563 47.04L88.5163 46.68C89.3429 45.3733 89.9963 44.2533 90.4763 43.32C90.9829 42.3867 91.4096 41.5733 91.7563 40.88C92.1029 40.1867 92.4763 39.5867 92.8763 39.08C93.2763 38.5467 93.6896 38.2533 94.1163 38.2C94.5696 38.1467 94.9563 38.24 95.2763 38.48ZM109.398 49.84C110.465 49.84 111.371 50.0133 112.118 50.36C112.865 50.7067 113.411 51.0267 113.758 51.32C114.638 52.04 115.171 51.56 115.358 49.88H116.278C116.225 50.6267 116.185 51.52 116.158 52.56C116.131 53.5733 116.118 54.9467 116.118 56.68H115.198C115.038 55.6933 114.758 54.7333 114.358 53.8C113.985 52.8667 113.425 52.1067 112.678 51.52C111.931 50.9067 110.958 50.6 109.758 50.6C108.825 50.6 108.038 50.8667 107.398 51.4C106.785 51.9067 106.478 52.6667 106.478 53.68C106.478 54.48 106.718 55.1733 107.198 55.76C107.678 56.32 108.305 56.8533 109.078 57.36C109.851 57.84 110.691 58.3733 111.598 58.96C112.611 59.6 113.531 60.2533 114.358 60.92C115.185 61.5867 115.838 62.32 116.318 63.12C116.825 63.92 117.078 64.8667 117.078 65.96C117.078 67.1867 116.758 68.2133 116.118 69.04C115.478 69.8667 114.638 70.4933 113.598 70.92C112.585 71.3467 111.465 71.56 110.238 71.56C109.651 71.56 109.091 71.5067 108.558 71.4C108.051 71.32 107.558 71.1867 107.078 71C106.811 70.8667 106.531 70.7067 106.238 70.52C105.971 70.3333 105.705 70.1333 105.438 69.92C105.171 69.7067 104.931 69.72 104.718 69.96C104.505 70.1733 104.345 70.6133 104.238 71.28H103.318C103.371 70.4267 103.411 69.3867 103.438 68.16C103.465 66.9333 103.478 65.3067 103.478 63.28H104.398C104.585 64.7733 104.851 66.08 105.198 67.2C105.545 68.32 106.091 69.2 106.838 69.84C107.585 70.4533 108.625 70.76 109.958 70.76C110.491 70.76 111.025 70.64 111.558 70.4C112.118 70.16 112.585 69.76 112.958 69.2C113.331 68.64 113.518 67.8933 113.518 66.96C113.518 65.7867 113.091 64.8267 112.238 64.08C111.385 63.3333 110.305 62.5467 108.998 61.72C108.038 61.1067 107.131 60.4933 106.278 59.88C105.451 59.2667 104.771 58.5733 104.238 57.8C103.731 57.0267 103.478 56.0933 103.478 55C103.478 53.8 103.745 52.8267 104.278 52.08C104.838 51.3067 105.571 50.7467 106.478 50.4C107.385 50.0267 108.358 49.84 109.398 49.84ZM126.569 43.76V50.44H132.489V51.24H126.569V66.72C126.569 67.9733 126.795 68.8533 127.249 69.36C127.702 69.8667 128.329 70.12 129.129 70.12C129.929 70.12 130.622 69.8 131.209 69.16C131.795 68.4933 132.302 67.3867 132.729 65.84L133.529 66.04C133.262 67.5867 132.729 68.8933 131.929 69.96C131.155 71.0267 129.955 71.56 128.329 71.56C127.422 71.56 126.675 71.44 126.089 71.2C125.502 70.9867 124.982 70.6667 124.529 70.24C123.942 69.6267 123.529 68.8933 123.289 68.04C123.075 67.1867 122.969 66.0533 122.969 64.64V51.24H119.129V50.44H122.969V44.32C123.635 44.2933 124.275 44.24 124.889 44.16C125.502 44.08 126.062 43.9467 126.569 43.76ZM138.829 40.4C139.523 40.4 140.123 40.6533 140.629 41.16C141.136 41.6667 141.389 42.2667 141.389 42.96C141.389 43.6533 141.136 44.2533 140.629 44.76C140.123 45.2667 139.523 45.52 138.829 45.52C138.136 45.52 137.536 45.2667 137.029 44.76C136.523 44.2533 136.269 43.6533 136.269 42.96C136.269 42.2667 136.523 41.6667 137.029 41.16C137.536 40.6533 138.136 40.4 138.829 40.4ZM140.909 49.96V67.28C140.909 68.4 141.136 69.16 141.589 69.56C142.069 69.96 142.856 70.16 143.949 70.16V71C143.496 70.9733 142.803 70.9467 141.869 70.92C140.963 70.8667 140.043 70.84 139.109 70.84C138.203 70.84 137.283 70.8667 136.349 70.92C135.416 70.9467 134.723 70.9733 134.269 71V70.16C135.363 70.16 136.136 69.96 136.589 69.56C137.069 69.16 137.309 68.4 137.309 67.28V54.76C137.309 53.56 137.096 52.68 136.669 52.12C136.243 51.5333 135.443 51.24 134.269 51.24V50.4C135.123 50.48 135.949 50.52 136.749 50.52C137.523 50.52 138.256 50.48 138.949 50.4C139.669 50.2933 140.323 50.1467 140.909 49.96ZM155.988 49.84C156.841 49.84 157.668 49.9467 158.468 50.16C159.268 50.3733 159.988 50.6933 160.628 51.12C161.241 51.52 161.708 51.9867 162.028 52.52C162.348 53.0267 162.508 53.5867 162.508 54.2C162.508 54.92 162.308 55.48 161.908 55.88C161.508 56.2533 161.001 56.44 160.388 56.44C159.801 56.44 159.281 56.2667 158.828 55.92C158.401 55.5733 158.188 55.08 158.188 54.44C158.188 53.8267 158.348 53.3333 158.668 52.96C159.015 52.5867 159.415 52.3467 159.868 52.24C159.601 51.76 159.121 51.36 158.428 51.04C157.761 50.72 157.041 50.56 156.268 50.56C155.601 50.56 154.935 50.72 154.268 51.04C153.601 51.36 152.988 51.8933 152.428 52.64C151.868 53.36 151.415 54.36 151.068 55.64C150.721 56.8933 150.548 58.4667 150.548 60.36C150.548 62.7067 150.815 64.5733 151.348 65.96C151.881 67.3467 152.575 68.3467 153.428 68.96C154.308 69.5467 155.268 69.84 156.308 69.84C157.001 69.84 157.708 69.7067 158.428 69.44C159.148 69.1733 159.828 68.7467 160.468 68.16C161.108 67.5467 161.655 66.7333 162.108 65.72L162.868 66C162.601 66.8533 162.161 67.72 161.548 68.6C160.935 69.4533 160.135 70.16 159.148 70.72C158.161 71.28 156.948 71.56 155.508 71.56C153.855 71.56 152.361 71.1333 151.028 70.28C149.695 69.4267 148.628 68.2133 147.828 66.64C147.055 65.04 146.668 63.1467 146.668 60.96C146.668 58.7733 147.055 56.8533 147.828 55.2C148.628 53.52 149.735 52.2133 151.148 51.28C152.561 50.32 154.175 49.84 155.988 49.84ZM175.241 49.84C176.948 49.84 178.481 50.2133 179.841 50.96C181.201 51.7067 182.281 52.88 183.081 54.48C183.908 56.08 184.321 58.16 184.321 60.72C184.321 63.28 183.908 65.36 183.081 66.96C182.281 68.5333 181.201 69.6933 179.841 70.44C178.481 71.1867 176.948 71.56 175.241 71.56C173.561 71.56 172.028 71.1867 170.641 70.44C169.281 69.6933 168.188 68.5333 167.361 66.96C166.561 65.36 166.161 63.28 166.161 60.72C166.161 58.16 166.561 56.08 167.361 54.48C168.188 52.88 169.281 51.7067 170.641 50.96C172.028 50.2133 173.561 49.84 175.241 49.84ZM175.241 50.64C173.721 50.64 172.468 51.4267 171.481 53C170.521 54.5733 170.041 57.1467 170.041 60.72C170.041 64.2933 170.521 66.8667 171.481 68.44C172.468 69.9867 173.721 70.76 175.241 70.76C176.761 70.76 178.001 69.9867 178.961 68.44C179.948 66.8667 180.441 64.2933 180.441 60.72C180.441 57.1467 179.948 54.5733 178.961 53C178.001 51.4267 176.761 50.64 175.241 50.64ZM194.515 49.84C195.582 49.84 196.489 50.0133 197.235 50.36C197.982 50.7067 198.529 51.0267 198.875 51.32C199.755 52.04 200.289 51.56 200.475 49.88H201.395C201.342 50.6267 201.302 51.52 201.275 52.56C201.249 53.5733 201.235 54.9467 201.235 56.68H200.315C200.155 55.6933 199.875 54.7333 199.475 53.8C199.102 52.8667 198.542 52.1067 197.795 51.52C197.049 50.9067 196.075 50.6 194.875 50.6C193.942 50.6 193.155 50.8667 192.515 51.4C191.902 51.9067 191.595 52.6667 191.595 53.68C191.595 54.48 191.835 55.1733 192.315 55.76C192.795 56.32 193.422 56.8533 194.195 57.36C194.969 57.84 195.809 58.3733 196.715 58.96C197.729 59.6 198.649 60.2533 199.475 60.92C200.302 61.5867 200.955 62.32 201.435 63.12C201.942 63.92 202.195 64.8667 202.195 65.96C202.195 67.1867 201.875 68.2133 201.235 69.04C200.595 69.8667 199.755 70.4933 198.715 70.92C197.702 71.3467 196.582 71.56 195.355 71.56C194.769 71.56 194.209 71.5067 193.675 71.4C193.169 71.32 192.675 71.1867 192.195 71C191.929 70.8667 191.649 70.7067 191.355 70.52C191.089 70.3333 190.822 70.1333 190.555 69.92C190.289 69.7067 190.049 69.72 189.835 69.96C189.622 70.1733 189.462 70.6133 189.355 71.28H188.435C188.489 70.4267 188.529 69.3867 188.555 68.16C188.582 66.9333 188.595 65.3067 188.595 63.28H189.515C189.702 64.7733 189.969 66.08 190.315 67.2C190.662 68.32 191.209 69.2 191.955 69.84C192.702 70.4533 193.742 70.76 195.075 70.76C195.609 70.76 196.142 70.64 196.675 70.4C197.235 70.16 197.702 69.76 198.075 69.2C198.449 68.64 198.635 67.8933 198.635 66.96C198.635 65.7867 198.209 64.8267 197.355 64.08C196.502 63.3333 195.422 62.5467 194.115 61.72C193.155 61.1067 192.249 60.4933 191.395 59.88C190.569 59.2667 189.889 58.5733 189.355 57.8C188.849 57.0267 188.595 56.0933 188.595 55C188.595 53.8 188.862 52.8267 189.395 52.08C189.955 51.3067 190.689 50.7467 191.595 50.4C192.502 50.0267 193.475 49.84 194.515 49.84Z" fill="#222222"/>
</svg>
