<svg width="120" height="75" viewBox="0 0 120 75" fill="none" xmlns="http://www.w3.org/2000/svg">
<g clip-path="url(#clip0_470_278)">
<path d="M10.9498 11.4744C12.8254 11.4 17.3998 11.25 19.7254 10.7244C19.6498 11.7 19.4998 14.7 19.4998 20.4V22.95C21.5998 21.2244 23.3254 20.3244 25.4254 20.3244C27.9754 20.3244 29.6998 21.45 30.8254 23.1C31.7998 24.6756 32.3254 26.85 32.3254 29.1756C32.3254 36.15 29.0254 40.1256 22.3498 40.1256C20.5498 40.1256 18.3742 39.5256 17.0998 38.85C16.1998 39.15 14.9998 39.75 13.7998 40.1256L13.4242 39.9C13.4998 37.8744 13.4998 34.05 13.4998 28.8744V19.2744C13.4998 16.8744 13.4242 15.2244 13.3498 13.8C13.2742 12.8244 13.0498 12.6744 10.7998 12.6744L10.9498 11.4744V11.4744ZM22.3498 38.7C24.8998 38.7 26.0998 35.6244 26.0998 29.9244C26.0998 27.6 25.7242 25.65 25.0498 24.3744C24.4498 23.4 23.6998 22.8744 22.6498 22.8744C21.5242 22.8744 20.5498 23.55 19.8742 24.5244C19.4998 25.05 19.3498 25.5 19.3498 31.4244C19.3498 36.3 19.5754 36.45 19.8754 37.05C20.3998 38.1756 21.3754 38.7 22.3498 38.7ZM45.4498 39.6756C43.8742 39.6756 42.2998 39.5244 39.8242 39.5244C37.1998 39.5244 35.9242 39.6756 34.6498 39.6756V38.4C36.7498 38.3244 37.0498 37.95 37.1254 37.1244C37.1998 36.2244 37.2754 34.8 37.2754 32.4744V27.6744C37.2754 25.7244 37.2754 24.15 37.1998 23.4744C37.1242 22.8 36.8242 22.5744 34.8742 22.65V21.3744C37.4998 21.15 40.6498 21.0744 43.1998 20.55C43.1242 21.5256 43.0498 23.3256 43.0498 27.45V32.6256C43.0498 35.0256 43.1254 36.0756 43.1998 37.1256C43.2754 38.1756 43.5754 38.3256 45.4498 38.55V39.6756ZM39.8242 11.85C41.7754 11.85 42.8998 12.9756 42.8998 15C42.8998 16.7256 41.6242 17.9256 39.6742 17.9256C37.9498 17.9256 36.7498 16.7256 36.7498 15C36.7498 13.2 37.9498 11.85 39.8254 11.85H39.8242ZM47.3998 11.4744C50.3254 11.4 53.7754 11.1 55.5754 10.7244C55.474 13.8234 55.4236 16.9238 55.4242 20.0244V29.4C56.8498 29.0244 59.9242 25.2744 61.1242 23.1C61.3498 22.65 61.3498 22.4244 60.7498 22.4244L59.0998 22.2744V21C61.8754 21.0756 64.7254 20.9244 67.5754 20.7744V22.05C65.4754 22.2756 64.6498 22.4256 63.8242 23.1C62.6998 24.0756 61.4242 25.4256 60.2242 26.85C61.1242 28.7256 64.8754 35.6256 66.2998 37.5C66.7498 38.1756 67.4254 38.4 68.1754 38.4L69.2242 38.4756L69.1498 39.75C65.5498 39.75 62.4742 39.9 60.8242 40.2C59.9242 38.1 57.2242 33 56.3998 31.4244C55.9498 30.6 55.7242 30.3 55.4242 30.3744C55.4242 33.45 55.3498 34.95 55.4998 37.1244C55.5754 38.1 55.7998 38.4 57.8254 38.4744V39.75C56.3998 39.75 54.8998 39.6 52.4254 39.6C49.4998 39.6 48.2254 39.75 47.0998 39.75V38.4744C49.0498 38.4 49.3498 38.0256 49.4254 37.2744C49.4998 36.3744 49.5742 34.4244 49.5742 30.5244V20.85C49.5742 17.7744 49.5742 15.45 49.4998 13.5C49.4998 13.05 49.1998 12.8244 48.5998 12.8244H47.3242L47.3998 11.4744V11.4744ZM29.3254 58.2C28.0498 62.25 25.5754 64.2 21.4498 64.2C17.9242 64.2 15.6742 63.2244 14.0998 61.1244C12.8998 59.55 12.2998 57.2244 12.2998 54.6C12.2998 48.8244 15.8254 44.4 22.2754 44.4C26.1754 44.4 29.0254 46.2 29.0254 49.1256C29.0254 51.15 27.3754 51.9744 26.0254 51.9744C25.5754 51.9744 24.8998 51.8256 24.5254 51.6C24.0754 51.3 23.8498 50.85 23.9998 50.25C24.0754 49.65 24.2254 49.2744 24.2254 48.6744C24.2254 46.8 23.5498 45.9 22.1254 45.9C19.7998 45.9 18.5998 49.2756 18.5998 53.9256C18.5998 55.8 18.8254 57.9 19.4998 59.1744C20.2498 60.9 21.4498 61.8744 23.2498 61.8744C25.4998 61.8744 26.9254 60.6 27.9754 57.6744L29.3254 58.2V58.2ZM33.5998 52.7256C33.5998 50.3256 33.5242 48.45 33.3742 47.4744C33.2998 46.95 32.9998 46.7256 32.4742 46.7256H31.1242V45.45C33.3742 45.3744 36.4498 45.2244 38.6242 44.55L38.8498 44.7C38.9998 45.6 39.1498 47.7756 39.2254 49.1256H39.3742C40.351 46.5 41.6998 44.4 44.4754 44.4C46.051 44.4 47.251 45.6756 47.251 47.4C47.251 49.8756 45.3754 50.6256 44.6254 50.6256C43.8766 50.6256 43.351 50.4 43.1254 49.8744C42.751 49.05 42.5254 48.6 41.7766 48.6C40.951 48.6 40.501 49.35 39.9766 50.55C39.751 51.2256 39.601 51.9756 39.601 53.25C39.601 57.5256 39.601 59.9256 39.6766 60.9756C39.751 62.0244 40.1254 62.3244 43.1254 62.4L43.051 63.6756C40.951 63.6 39.0754 63.5244 36.901 63.5244C34.651 63.5244 33.001 63.6 31.1254 63.6756L31.3498 62.4C33.1498 62.3244 33.5998 62.1 33.5998 61.35C33.6754 60.3 33.7498 58.2744 33.7498 55.95V52.7244H33.5998V52.7256ZM59.0254 49.2756C59.0254 47.0244 58.2742 45.8244 56.7742 45.8244C55.0498 45.8244 54.2254 46.8 54.2254 48.6C54.2254 49.1256 54.2998 49.5756 54.3742 50.0256C54.4498 50.4744 54.2998 50.9256 53.9254 51.15C53.3998 51.5256 52.4998 51.8256 51.8254 51.8256C50.3998 51.8256 49.1998 51.1488 49.1998 49.5C49.1998 47.1 52.7254 44.4 57.6754 44.4C61.7242 44.4 63.5242 46.05 64.1998 47.1C64.5754 47.7 64.7998 48.3756 64.7998 49.1256V60.15C64.7998 61.4256 65.1754 61.7256 65.6254 61.7256C66.2254 61.7256 66.8998 60.75 67.1998 59.1L68.4754 59.7C67.7998 62.9256 65.8498 64.2756 63.1498 64.2756C60.8242 64.2756 59.5498 63.3 59.1742 61.35C57.3742 63.15 55.4998 64.2756 53.5498 64.2756C50.3998 64.2756 48.2998 62.1756 48.2998 58.7244C48.2998 56.6244 49.1998 55.4244 50.7754 54.75C53.3242 53.6244 57.1498 52.5 59.0242 51.15V49.2744L59.0254 49.2756ZM54.2998 57.6C54.2998 59.25 54.9754 61.05 56.6254 61.05C57.8254 61.05 58.3498 60.3 58.7254 59.55C58.8742 59.1744 58.9498 58.5 58.9498 57.75V52.65C58.1242 53.1756 56.8498 53.7756 55.8742 54.3756C54.9742 54.9756 54.2998 55.7244 54.2998 57.6ZM69.1498 45.0756L71.5498 45.15V43.95C71.6254 40.8 72.3754 38.4744 74.0254 36.8244C75.5254 35.3244 77.3254 34.5744 79.4998 34.5744C82.5754 34.5744 84.2254 36.0744 84.2254 38.0244C84.2254 39.45 83.0254 40.4244 81.3742 40.4244C80.4742 40.4244 79.8742 39.8244 79.8742 38.9244C79.8742 37.35 79.6498 36.0756 78.5254 36.0756C77.7742 36.0756 77.3254 36.75 77.1742 38.0256C77.0254 39.2256 77.2498 41.4756 77.3998 45H81.0754L80.8498 46.5L77.3998 46.7256C77.3242 48.15 77.3242 50.6256 77.3242 53.55C77.3242 56.3256 77.3242 58.8 77.3998 60.75C77.4754 61.7256 77.6254 62.1 78.4498 62.1756C79.1998 62.25 79.7998 62.3244 80.4754 62.3244L80.323 63.6C78.8986 63.6 76.6486 63.45 74.6986 63.45C72.673 63.45 70.273 63.6 68.923 63.6L68.9986 62.3244C70.9486 62.25 71.2486 62.0244 71.3242 61.2C71.473 59.9244 71.473 57.9744 71.473 55.35V46.65L68.9242 46.5L69.1486 45.0744L69.1498 45.0756Z" fill="black"/>
<path d="M94.8755 45.0756L94.7243 46.5L90.1499 46.8C90.1499 48.3756 90.0743 50.7 90.0743 53.85C90.0743 57.15 90.0743 59.4 90.2255 60.75C90.2999 61.7256 90.6743 62.1756 91.4255 62.1756C92.9999 62.1756 93.9743 60.45 94.3499 58.8756H94.9499L95.4755 60.6C94.5755 62.7756 92.3243 64.2756 89.0243 64.2756C87.2243 64.2756 85.6499 63.6756 84.8999 62.7756C84.3743 62.1 84.1499 61.2756 84.1499 60.0756C84.1499 57 84.2999 50.1 84.2999 46.8L81.8999 46.5744L82.0499 45.15H84.2999C84.3755 43.7244 84.3755 42.0744 84.3755 40.5744C86.9999 39.9 88.9487 39.0756 89.9999 38.4L90.4499 38.4756C90.3188 40.6982 90.2436 42.9237 90.2243 45.15H94.8755V45.0744V45.0756Z" fill="black"/>
<path d="M114 6V68.4H6V6H114ZM120 0H0V74.4H120V0Z" fill="black"/>
</g>
<defs>
<clipPath id="clip0_470_278">
<rect width="120" height="74.4" fill="white"/>
</clipPath>
</defs>
</svg>
