<svg width="140" height="37" viewBox="0 0 140 37" fill="none" xmlns="http://www.w3.org/2000/svg">
<path d="M11.3938 22.7367V27.8232C11.3938 30.3665 10.2748 31.2821 8.49448 31.2821C6.7142 31.2821 5.59517 30.3665 5.59517 27.8232V8.59621C5.59517 6.05295 6.7142 5.08652 8.49448 5.08652C10.2748 5.08652 11.3938 6.05295 11.3938 8.59621V12.4111H16.6838V8.95227C16.6838 3.25537 13.8353 0 8.34189 0C2.84845 0 0 3.25537 0 8.95227V27.4672C0 33.1641 2.84845 36.4195 8.34189 36.4195C13.8353 36.4195 16.6838 33.1641 16.6838 27.4672V22.7367H11.3938ZM32.5028 0.406921L38.1997 36.0125H32.5537L31.5873 29.5527H24.7205L23.754 36.0125H18.6166L24.3135 0.406921H32.5028ZM28.0776 6.7142L25.4326 24.7205H30.8243L28.1793 6.7142H28.0776ZM58.1897 36.0125H52.4928C52.1877 35.097 51.9842 34.5374 51.9842 31.6381V26.043C51.9842 22.7367 50.8652 21.516 48.3219 21.516H46.389V36.0125H40.7939V0.406921H49.2375C55.0361 0.406921 57.5285 3.10278 57.5285 8.59621V11.3938C57.5285 15.0561 56.3586 17.3959 53.8662 18.5658C56.6638 19.8374 57.5794 22.4824 57.5794 26.1956V31.689C57.5794 33.4184 57.6302 34.69 58.1897 36.0125ZM49.0849 5.49344H46.389V16.4294H48.5762C50.6617 16.4294 51.9333 15.5139 51.9333 12.6654V9.15573C51.9333 6.61247 51.0686 5.49344 49.0849 5.49344ZM75.2423 0.406921L80.9392 36.0125H75.2931L74.3267 29.5527H67.4599L66.4935 36.0125H61.3561L67.053 0.406921H75.2423ZM70.817 6.7142L68.172 24.7205H73.5637L70.9188 6.7142H70.817ZM86.1147 0.406921H80.4687L85.9621 36.0125H94.304L99.7974 0.406921H94.6601L90.4383 29.4509H90.3365L86.1147 0.406921ZM113.213 0.406921L118.91 36.0125H113.264L112.298 29.5527H105.431L104.464 36.0125H99.3269L105.024 0.406921H113.213ZM108.788 6.7142L106.143 24.7205H111.535L108.89 6.7142H108.788ZM134.252 36.0125H140V0.406921H135.015V21.7194H134.913L129.267 0.406921H122.248V36.0125H127.284V10.2239H127.385L134.252 36.0125Z" fill="black"/>
</svg>
