<svg width="200" height="32" viewBox="0 0 200 32" fill="none" xmlns="http://www.w3.org/2000/svg">
<path d="M0.676758 31.2416V1.94996H4.65693L16.473 20.95H14.1927L25.9674 1.94996H29.9476V31.2416H24.3505V11.6583L25.4284 11.9916L17.2193 25.2416H13.405L5.19591 11.9916L6.31533 11.6583V31.2416H0.676758ZM44.7326 31.6583C42.7149 31.6583 40.8906 31.2 39.2599 30.2833C37.6567 29.3389 36.3715 28.075 35.4041 26.4916C34.4643 24.8805 33.9944 23.0889 33.9944 21.1166C33.9944 19.1444 34.4643 17.3805 35.4041 15.825C36.3438 14.2416 37.6291 12.9916 39.2599 12.075C40.8906 11.1305 42.701 10.6583 44.6911 10.6583C46.7365 10.6583 48.5607 11.1305 50.1639 12.075C51.7946 12.9916 53.0799 14.2416 54.0197 15.825C54.9594 17.3805 55.4293 19.1444 55.4293 21.1166C55.4293 23.0889 54.9594 24.8805 54.0197 26.4916C53.0799 28.075 51.7946 29.3389 50.1639 30.2833C48.5607 31.2 46.7503 31.6583 44.7326 31.6583ZM44.6911 26.575C45.7138 26.575 46.6121 26.3527 47.386 25.9083C48.1876 25.4361 48.7957 24.7972 49.2103 23.9916C49.6525 23.1583 49.8736 22.2139 49.8736 21.1583C49.8736 20.1027 49.6525 19.1722 49.2103 18.3666C48.768 17.5611 48.16 16.9361 47.386 16.4916C46.6121 16.0194 45.7138 15.7833 44.6911 15.7833C43.6961 15.7833 42.8116 16.0194 42.0377 16.4916C41.2638 16.9361 40.6557 17.5611 40.2134 18.3666C39.7712 19.1722 39.5501 20.1027 39.5501 21.1583C39.5501 22.2139 39.7712 23.1583 40.2134 23.9916C40.6557 24.7972 41.2638 25.4361 42.0377 25.9083C42.8116 26.3527 43.6961 26.575 44.6911 26.575ZM64.8278 31.2416L55.9968 11.1166H61.9671L68.3105 27.7H65.3668L71.7517 11.1166H77.5146L68.7251 31.2416H64.8278ZM88.9903 31.6583C86.8897 31.6583 85.024 31.2138 83.3932 30.325C81.7624 29.4083 80.4633 28.1583 79.4959 26.575C78.5562 24.9916 78.0863 23.1861 78.0863 21.1583C78.0863 19.1583 78.5424 17.3805 79.4545 15.825C80.3943 14.2416 81.6657 12.9916 83.2688 12.075C84.8719 11.1305 86.6547 10.6583 88.6172 10.6583C90.552 10.6583 92.2518 11.1027 93.7168 11.9916C95.2093 12.8527 96.3702 14.0472 97.1994 15.575C98.0562 17.075 98.4847 18.7833 98.4847 20.7C98.4847 21.0611 98.457 21.4361 98.4017 21.825C98.3741 22.1861 98.305 22.6027 98.1944 23.075L81.3617 23.1166V19.0333L95.6654 18.9916L93.468 20.7C93.4127 19.5055 93.1916 18.5055 92.8046 17.7C92.4453 16.8944 91.9063 16.2833 91.1877 15.8666C90.4967 15.4222 89.6399 15.2 88.6172 15.2C87.5392 15.2 86.5994 15.45 85.7979 15.95C84.9963 16.4222 84.3744 17.1027 83.9322 17.9916C83.5176 18.8527 83.3103 19.8805 83.3103 21.075C83.3103 22.2972 83.5314 23.3666 83.9736 24.2833C84.4435 25.1722 85.1069 25.8666 85.9637 26.3666C86.8206 26.8388 87.8156 27.075 88.9488 27.075C89.9715 27.075 90.8975 26.9083 91.7267 26.575C92.5559 26.2138 93.2745 25.6861 93.8826 24.9916L97.075 28.2C96.1076 29.3388 94.9191 30.2 93.5095 30.7833C92.1274 31.3666 90.6211 31.6583 88.9903 31.6583ZM129.013 31.2416L115.414 16.2416C114.391 15.1027 113.631 14.0194 113.134 12.9916C112.636 11.9361 112.387 10.7833 112.387 9.5333C112.387 8.06107 112.747 6.71385 113.465 5.49163C114.212 4.26941 115.221 3.29718 116.492 2.57496C117.791 1.85274 119.27 1.49163 120.928 1.49163C122.227 1.49163 123.388 1.69996 124.411 2.11663C125.434 2.50552 126.318 3.01941 127.064 3.6583C127.838 4.29718 128.46 4.97774 128.93 5.69996L125.199 9.19996C124.618 8.39441 123.996 7.76941 123.333 7.32496C122.67 6.85274 121.896 6.61663 121.011 6.61663C120.071 6.61663 119.284 6.89441 118.648 7.44996C118.012 8.00552 117.694 8.69996 117.694 9.5333C117.694 10.3111 117.86 10.9777 118.192 11.5333C118.524 12.0611 118.98 12.6722 119.56 13.3666L135.439 31.2416H129.013ZM119.27 31.6583C117.28 31.6583 115.538 31.2694 114.046 30.4916C112.581 29.7138 111.434 28.6583 110.605 27.325C109.803 25.9638 109.402 24.4222 109.402 22.7C109.402 20.9222 109.872 19.325 110.812 17.9083C111.779 16.4916 113.203 15.3388 115.082 14.45L117.529 17.95C116.589 18.3944 115.87 18.9916 115.373 19.7416C114.903 20.4638 114.668 21.3666 114.668 22.45C114.668 23.2833 114.861 24.0194 115.248 24.6583C115.635 25.2694 116.188 25.7555 116.907 26.1166C117.625 26.45 118.454 26.6166 119.394 26.6166C120.583 26.6166 121.578 26.3666 122.379 25.8666C123.181 25.3666 123.817 24.7277 124.287 23.95L127.935 27.95C127.382 28.6166 126.664 29.2277 125.779 29.7833C124.895 30.3388 123.9 30.7972 122.794 31.1583C121.688 31.4916 120.514 31.6583 119.27 31.6583ZM144.64 31.2416V1.11663H150.071V31.2416H144.64ZM154.883 31.2416V11.1166H160.356V31.2416H154.883ZM157.619 7.86663C156.735 7.86663 156.002 7.57496 155.422 6.99163C154.841 6.38052 154.551 5.63052 154.551 4.74163C154.551 3.88052 154.841 3.14441 155.422 2.5333C156.002 1.92218 156.735 1.61663 157.619 1.61663C158.531 1.61663 159.264 1.92218 159.817 2.5333C160.397 3.14441 160.687 3.88052 160.687 4.74163C160.687 5.63052 160.397 6.38052 159.817 6.99163C159.264 7.57496 158.531 7.86663 157.619 7.86663ZM167.821 31.2416V8.94996C167.821 7.33885 168.166 5.92218 168.857 4.69996C169.548 3.44996 170.53 2.46385 171.801 1.74163C173.072 1.01941 174.565 0.658295 176.279 0.658295C177.578 0.658295 178.697 0.880517 179.637 1.32496C180.577 1.76941 181.42 2.38052 182.166 3.1583L178.725 6.6583C178.421 6.35274 178.089 6.11663 177.73 5.94996C177.37 5.78329 176.914 5.69996 176.362 5.69996C175.367 5.69996 174.593 5.97774 174.04 6.5333C173.515 7.06107 173.252 7.82496 173.252 8.82496V31.2416H167.821ZM163.177 15.9083V11.1166H179.181V15.9083H163.177ZM191.182 31.6583C189.082 31.6583 187.216 31.2138 185.585 30.325C183.955 29.4083 182.655 28.1583 181.688 26.575C180.748 24.9916 180.278 23.1861 180.278 21.1583C180.278 19.1583 180.734 17.3805 181.647 15.825C182.586 14.2416 183.858 12.9916 185.461 12.075C187.064 11.1305 188.847 10.6583 190.809 10.6583C192.744 10.6583 194.444 11.1027 195.909 11.9916C197.401 12.8527 198.562 14.0472 199.391 15.575C200.248 17.075 200.677 18.7833 200.677 20.7C200.677 21.0611 200.649 21.4361 200.594 21.825C200.566 22.1861 200.497 22.6027 200.387 23.075L183.554 23.1166V19.0333L197.857 18.9916L195.66 20.7C195.605 19.5055 195.384 18.5055 194.997 17.7C194.637 16.8944 194.098 16.2833 193.38 15.8666C192.689 15.4222 191.832 15.2 190.809 15.2C189.731 15.2 188.792 15.45 187.99 15.95C187.188 16.4222 186.567 17.1027 186.124 17.9916C185.71 18.8527 185.502 19.8805 185.502 21.075C185.502 22.2972 185.723 23.3666 186.166 24.2833C186.636 25.1722 187.299 25.8666 188.156 26.3666C189.013 26.8388 190.008 27.075 191.141 27.075C192.164 27.075 193.09 26.9083 193.919 26.575C194.748 26.2138 195.467 25.6861 196.075 24.9916L199.267 28.2C198.3 29.3388 197.111 30.2 195.702 30.7833C194.32 31.3666 192.813 31.6583 191.182 31.6583Z" fill="white"/>
</svg>
