<svg width="200" height="203" viewBox="0 0 200 203" fill="none" xmlns="http://www.w3.org/2000/svg">
<path d="M22.8404 24.8902C22.8404 25.3754 22.4471 25.7687 21.9619 25.7687C21.4768 25.7687 21.0835 25.3754 21.0835 24.8902C21.0835 24.405 21.4768 24.0117 21.9619 24.0117C22.4471 24.0117 22.8404 24.405 22.8404 24.8902Z" fill="#CBCAFF" fill-opacity="0.5"/>
<path d="M171.01 77.0132C171.01 77.4983 170.617 77.8917 170.132 77.8917C169.647 77.8917 169.253 77.4983 169.253 77.0132C169.253 76.528 169.647 76.1347 170.132 76.1347C170.617 76.1347 171.01 76.528 171.01 77.0132Z" fill="#CBCAFF" fill-opacity="0.5"/>
<path d="M57.9795 62.9575C57.9795 63.4427 57.5862 63.836 57.101 63.836C56.6159 63.836 56.2225 63.4427 56.2225 62.9575C56.2225 62.4724 56.6159 62.0791 57.101 62.0791C57.5862 62.0791 57.9795 62.4724 57.9795 62.9575Z" fill="#CBCAFF" fill-opacity="0.5"/>
<path d="M76.7204 129.722C76.7204 130.207 76.327 130.6 75.8419 130.6C75.3567 130.6 74.9634 130.207 74.9634 129.722C74.9634 129.237 75.3567 128.843 75.8419 128.843C76.327 128.843 76.7204 129.237 76.7204 129.722Z" fill="#CBCAFF" fill-opacity="0.5"/>
<path d="M59.1508 27.8184C59.1508 28.3036 58.7575 28.6969 58.2723 28.6969C57.7872 28.6969 57.3938 28.3036 57.3938 27.8184C57.3938 27.3333 57.7872 26.94 58.2723 26.94C58.7575 26.94 59.1508 27.3333 59.1508 27.8184Z" fill="#CBCAFF" fill-opacity="0.5"/>
<path d="M94.8755 89.8975C94.8755 90.3827 94.4822 90.776 93.9971 90.776C93.5119 90.776 93.1186 90.3827 93.1186 89.8975C93.1186 89.4123 93.5119 89.019 93.9971 89.019C94.4822 89.019 94.8755 89.4123 94.8755 89.8975Z" fill="#CBCAFF" fill-opacity="0.5"/>
<path d="M68.5212 191.215C68.5212 191.7 68.1279 192.094 67.6428 192.094C67.1576 192.094 66.7643 191.7 66.7643 191.215C66.7643 190.73 67.1576 190.337 67.6428 190.337C68.1279 190.337 68.5212 190.73 68.5212 191.215Z" fill="#CBCAFF" fill-opacity="0.5"/>
<path d="M95.4612 159.004C95.4612 159.49 95.0679 159.883 94.5827 159.883C94.0975 159.883 93.7042 159.49 93.7042 159.004C93.7042 158.519 94.0975 158.126 94.5827 158.126C95.0679 158.126 95.4612 158.519 95.4612 159.004Z" fill="#CBCAFF" fill-opacity="0.5"/>
<path d="M156.955 50.0732C156.955 50.5584 156.561 50.9517 156.076 50.9517C155.591 50.9517 155.198 50.5584 155.198 50.0732C155.198 49.588 155.591 49.1947 156.076 49.1947C156.561 49.1947 156.955 49.588 156.955 50.0732Z" fill="#CBCAFF" fill-opacity="0.5"/>
<path d="M88.4334 93.4114C88.4334 93.8966 88.0401 94.2899 87.5549 94.2899C87.0697 94.2899 86.6764 93.8966 86.6764 93.4114C86.6764 92.9262 87.0697 92.5329 87.5549 92.5329C88.0401 92.5329 88.4334 92.9262 88.4334 93.4114Z" fill="#CBCAFF" fill-opacity="0.5"/>
<path d="M130.015 180.673C130.015 181.159 129.621 181.552 129.136 181.552C128.651 181.552 128.258 181.159 128.258 180.673C128.258 180.188 128.651 179.795 129.136 179.795C129.621 179.795 130.015 180.188 130.015 180.673Z" fill="#CBCAFF" fill-opacity="0.5"/>
<path d="M110.102 120.351C110.102 120.837 109.709 121.23 109.224 121.23C108.739 121.23 108.346 120.837 108.346 120.351C108.346 119.866 108.739 119.473 109.224 119.473C109.709 119.473 110.102 119.866 110.102 120.351Z" fill="#CBCAFF" fill-opacity="0.5"/>
<path d="M43.3382 91.6545C43.3382 92.1396 42.9449 92.5329 42.4597 92.5329C41.9746 92.5329 41.5813 92.1396 41.5813 91.6545C41.5813 91.1693 41.9746 90.776 42.4597 90.776C42.9449 90.776 43.3382 91.1693 43.3382 91.6545Z" fill="#CBCAFF" fill-opacity="0.5"/>
<path d="M111.859 42.4597C111.859 42.9449 111.466 43.3382 110.981 43.3382C110.496 43.3382 110.102 42.9449 110.102 42.4597C110.102 41.9746 110.496 41.5813 110.981 41.5813C111.466 41.5813 111.859 41.9746 111.859 42.4597Z" fill="#CBCAFF" fill-opacity="0.5"/>
<path d="M150.512 110.981C150.512 111.466 150.119 111.859 149.634 111.859C149.149 111.859 148.755 111.466 148.755 110.981C148.755 110.496 149.149 110.102 149.634 110.102C150.119 110.102 150.512 110.496 150.512 110.981Z" fill="#CBCAFF" fill-opacity="0.5"/>
<path d="M36.896 163.69C36.896 164.175 36.5027 164.568 36.0176 164.568C35.5324 164.568 35.1391 164.175 35.1391 163.69C35.1391 163.204 35.5324 162.811 36.0176 162.811C36.5027 162.811 36.896 163.204 36.896 163.69Z" fill="#CBCAFF" fill-opacity="0.5"/>
<path d="M198.536 80.8199C198.536 81.1434 198.274 81.4056 197.95 81.4056C197.627 81.4056 197.365 81.1434 197.365 80.8199C197.365 80.4965 197.627 80.2343 197.95 80.2343C198.274 80.2343 198.536 80.4965 198.536 80.8199Z" fill="#CBCAFF" fill-opacity="0.5"/>
<path d="M72.0351 7.61347C72.0351 7.93692 71.7729 8.19912 71.4495 8.19912C71.126 8.19912 70.8638 7.93692 70.8638 7.61347C70.8638 7.29002 71.126 7.02782 71.4495 7.02782C71.7729 7.02782 72.0351 7.29002 72.0351 7.61347Z" fill="#CBCAFF" fill-opacity="0.5"/>
<path d="M158.126 181.552C158.126 181.875 157.864 182.138 157.54 182.138C157.217 182.138 156.955 181.875 156.955 181.552C156.955 181.229 157.217 180.966 157.54 180.966C157.864 180.966 158.126 181.229 158.126 181.552Z" fill="#CBCAFF" fill-opacity="0.5"/>
<path d="M45.0952 141.142C45.0952 141.465 44.833 141.728 44.5095 141.728C44.1861 141.728 43.9239 141.465 43.9239 141.142C43.9239 140.819 44.1861 140.556 44.5095 140.556C44.833 140.556 45.0952 140.819 45.0952 141.142Z" fill="#CBCAFF" fill-opacity="0.5"/>
<path d="M65.0073 167.496C65.0073 167.82 64.7451 168.082 64.4217 168.082C64.0982 168.082 63.836 167.82 63.836 167.496C63.836 167.173 64.0982 166.911 64.4217 166.911C64.7451 166.911 65.0073 167.173 65.0073 167.496Z" fill="#CBCAFF" fill-opacity="0.5"/>
<path d="M41.5813 9.95608C41.5813 10.2795 41.3191 10.5417 40.9956 10.5417C40.6722 10.5417 40.41 10.2795 40.41 9.95608C40.41 9.63263 40.6722 9.37042 40.9956 9.37042C41.3191 9.37042 41.5813 9.63263 41.5813 9.95608Z" fill="#CBCAFF" fill-opacity="0.5"/>
<path d="M172.182 24.5974C172.182 24.9208 171.919 25.183 171.596 25.183C171.272 25.183 171.01 24.9208 171.01 24.5974C171.01 24.2739 171.272 24.0117 171.596 24.0117C171.919 24.0117 172.182 24.2739 172.182 24.5974Z" fill="#CBCAFF" fill-opacity="0.5"/>
<path d="M135.286 59.1508C135.286 59.4743 135.023 59.7365 134.7 59.7365C134.376 59.7365 134.114 59.4743 134.114 59.1508C134.114 58.8274 134.376 58.5652 134.7 58.5652C135.023 58.5652 135.286 58.8274 135.286 59.1508Z" fill="#CBCAFF" fill-opacity="0.5"/>
<path d="M65.0073 86.6764C65.0073 86.9999 64.7451 87.2621 64.4217 87.2621C64.0982 87.2621 63.836 86.9999 63.836 86.6764C63.836 86.353 64.0982 86.0908 64.4217 86.0908C64.7451 86.0908 65.0073 86.353 65.0073 86.6764Z" fill="#CBCAFF" fill-opacity="0.5"/>
<path d="M128.258 94.8755C128.258 95.199 127.995 95.4612 127.672 95.4612C127.349 95.4612 127.086 95.199 127.086 94.8755C127.086 94.5521 127.349 94.2899 127.672 94.2899C127.995 94.2899 128.258 94.5521 128.258 94.8755Z" fill="#CBCAFF" fill-opacity="0.5"/>
<path d="M106.003 135.286C106.003 135.609 105.741 135.871 105.417 135.871C105.094 135.871 104.832 135.609 104.832 135.286C104.832 134.962 105.094 134.7 105.417 134.7C105.741 134.7 106.003 134.962 106.003 135.286Z" fill="#CBCAFF" fill-opacity="0.5"/>
<path d="M67.9356 124.744C67.9356 125.067 67.6734 125.329 67.3499 125.329C67.0265 125.329 66.7643 125.067 66.7643 124.744C66.7643 124.42 67.0265 124.158 67.3499 124.158C67.6734 124.158 67.9356 124.42 67.9356 124.744Z" fill="#CBCAFF" fill-opacity="0.5"/>
<path d="M75.549 96.6325C75.549 96.9559 75.2868 97.2182 74.9634 97.2182C74.6399 97.2182 74.3777 96.9559 74.3777 96.6325C74.3777 96.3091 74.6399 96.0469 74.9634 96.0469C75.2868 96.0469 75.549 96.3091 75.549 96.6325Z" fill="#CBCAFF" fill-opacity="0.5"/>
<path d="M114.788 81.9912C114.788 82.3147 114.525 82.5769 114.202 82.5769C113.879 82.5769 113.616 82.3147 113.616 81.9912C113.616 81.6678 113.879 81.4056 114.202 81.4056C114.525 81.4056 114.788 81.6678 114.788 81.9912Z" fill="#CBCAFF" fill-opacity="0.5"/>
<path d="M131.186 139.385C131.186 139.709 130.924 139.971 130.6 139.971C130.277 139.971 130.015 139.709 130.015 139.385C130.015 139.062 130.277 138.799 130.6 138.799C130.924 138.799 131.186 139.062 131.186 139.385Z" fill="#CBCAFF" fill-opacity="0.5"/>
<path d="M110.102 134.114C110.102 134.438 109.84 134.7 109.517 134.7C109.193 134.7 108.931 134.438 108.931 134.114C108.931 133.791 109.193 133.529 109.517 133.529C109.84 133.529 110.102 133.791 110.102 134.114Z" fill="#CBCAFF" fill-opacity="0.5"/>
<path d="M112.445 154.026C112.445 154.35 112.183 154.612 111.859 154.612C111.536 154.612 111.274 154.35 111.274 154.026C111.274 153.703 111.536 153.441 111.859 153.441C112.183 153.441 112.445 153.703 112.445 154.026Z" fill="#CBCAFF" fill-opacity="0.5"/>
<path d="M129.429 151.684C129.429 152.007 129.167 152.269 128.843 152.269C128.52 152.269 128.258 152.007 128.258 151.684C128.258 151.36 128.52 151.098 128.843 151.098C129.167 151.098 129.429 151.36 129.429 151.684Z" fill="#CBCAFF" fill-opacity="0.5"/>
<path d="M85.5051 185.652C85.5051 185.975 85.2429 186.237 84.9195 186.237C84.596 186.237 84.3338 185.975 84.3338 185.652C84.3338 185.328 84.596 185.066 84.9195 185.066C85.2429 185.066 85.5051 185.328 85.5051 185.652Z" fill="#CBCAFF" fill-opacity="0.5"/>
<path d="M32.7965 151.684C32.7965 152.007 32.5343 152.269 32.2108 152.269C31.8874 152.269 31.6252 152.007 31.6252 151.684C31.6252 151.36 31.8874 151.098 32.2108 151.098C32.5343 151.098 32.7965 151.36 32.7965 151.684Z" fill="#CBCAFF" fill-opacity="0.5"/>
<path d="M144.07 176.281C144.07 176.605 143.808 176.867 143.485 176.867C143.161 176.867 142.899 176.605 142.899 176.281C142.899 175.958 143.161 175.695 143.485 175.695C143.808 175.695 144.07 175.958 144.07 176.281Z" fill="#CBCAFF" fill-opacity="0.5"/>
<path d="M127.672 124.744C127.672 125.067 127.41 125.329 127.086 125.329C126.763 125.329 126.501 125.067 126.501 124.744C126.501 124.42 126.763 124.158 127.086 124.158C127.41 124.158 127.672 124.42 127.672 124.744Z" fill="#CBCAFF" fill-opacity="0.5"/>
<path d="M84.3338 178.038C84.3338 178.362 84.0716 178.624 83.7482 178.624C83.4247 178.624 83.1625 178.362 83.1625 178.038C83.1625 177.715 83.4247 177.452 83.7482 177.452C84.0716 177.452 84.3338 177.715 84.3338 178.038Z" fill="#CBCAFF" fill-opacity="0.5"/>
<path d="M52.7086 163.397C52.7086 163.72 52.4464 163.982 52.123 163.982C51.7995 163.982 51.5373 163.72 51.5373 163.397C51.5373 163.073 51.7995 162.811 52.123 162.811C52.4464 162.811 52.7086 163.073 52.7086 163.397Z" fill="#CBCAFF" fill-opacity="0.5"/>
<path d="M96.6325 142.899C96.6325 143.222 96.3703 143.485 96.0469 143.485C95.7234 143.485 95.4612 143.222 95.4612 142.899C95.4612 142.576 95.7234 142.313 96.0469 142.313C96.3703 142.313 96.6325 142.576 96.6325 142.899Z" fill="#CBCAFF" fill-opacity="0.5"/>
<path d="M115.959 92.5329C115.959 92.8564 115.697 93.1186 115.373 93.1186C115.05 93.1186 114.788 92.8564 114.788 92.5329C114.788 92.2095 115.05 91.9473 115.373 91.9473C115.697 91.9473 115.959 92.2095 115.959 92.5329Z" fill="#CBCAFF" fill-opacity="0.5"/>
<path d="M96.0469 125.329C96.0469 125.653 95.7846 125.915 95.4612 125.915C95.1377 125.915 94.8755 125.653 94.8755 125.329C94.8755 125.006 95.1377 124.744 95.4612 124.744C95.7846 124.744 96.0469 125.006 96.0469 125.329Z" fill="#CBCAFF" fill-opacity="0.5"/>
<path d="M71.4495 109.517C71.4495 109.84 71.1873 110.102 70.8638 110.102C70.5404 110.102 70.2782 109.84 70.2782 109.517C70.2782 109.193 70.5404 108.931 70.8638 108.931C71.1873 108.931 71.4495 109.193 71.4495 109.517Z" fill="#CBCAFF" fill-opacity="0.5"/>
<path d="M85.5051 130.015C85.5051 130.338 85.2429 130.6 84.9195 130.6C84.596 130.6 84.3338 130.338 84.3338 130.015C84.3338 129.691 84.596 129.429 84.9195 129.429C85.2429 129.429 85.5051 129.691 85.5051 130.015Z" fill="#CBCAFF" fill-opacity="0.5"/>
<path d="M48.0234 93.7042C48.0234 94.0277 47.7612 94.2899 47.4378 94.2899C47.1143 94.2899 46.8521 94.0277 46.8521 93.7042C46.8521 93.3808 47.1143 93.1186 47.4378 93.1186C47.7612 93.1186 48.0234 93.3808 48.0234 93.7042Z" fill="#CBCAFF" fill-opacity="0.5"/>
<path d="M169.253 147.584C169.253 147.908 168.991 148.17 168.668 148.17C168.344 148.17 168.082 147.908 168.082 147.584C168.082 147.261 168.344 146.999 168.668 146.999C168.991 146.999 169.253 147.261 169.253 147.584Z" fill="#CBCAFF" fill-opacity="0.5"/>
<path d="M199.707 117.13C199.707 117.454 199.445 117.716 199.122 117.716C198.798 117.716 198.536 117.454 198.536 117.13C198.536 116.807 198.798 116.545 199.122 116.545C199.445 116.545 199.707 116.807 199.707 117.13Z" fill="#CBCAFF" fill-opacity="0.5"/>
<path d="M107.174 197.365C107.174 197.688 106.912 197.95 106.589 197.95C106.265 197.95 106.003 197.688 106.003 197.365C106.003 197.041 106.265 196.779 106.589 196.779C106.912 196.779 107.174 197.041 107.174 197.365Z" fill="#CBCAFF" fill-opacity="0.5"/>
<path d="M7.02782 179.209C7.02782 179.533 6.76561 179.795 6.44217 179.795C6.11872 179.795 5.85651 179.533 5.85651 179.209C5.85651 178.886 6.11872 178.624 6.44217 178.624C6.76561 178.624 7.02782 178.886 7.02782 179.209Z" fill="#CBCAFF" fill-opacity="0.5"/>
<path d="M44.5095 200.878C44.5095 201.202 44.2473 201.464 43.9239 201.464C43.6004 201.464 43.3382 201.202 43.3382 200.878C43.3382 200.555 43.6004 200.293 43.9239 200.293C44.2473 200.293 44.5095 200.555 44.5095 200.878Z" fill="#CBCAFF" fill-opacity="0.5"/>
<path d="M5.27086 200.293C5.27086 200.616 5.00866 200.878 4.68521 200.878C4.36177 200.878 4.09956 200.616 4.09956 200.293C4.09956 199.969 4.36177 199.707 4.68521 199.707C5.00866 199.707 5.27086 199.969 5.27086 200.293Z" fill="#CBCAFF" fill-opacity="0.5"/>
<path d="M141.728 152.855C141.728 153.178 141.465 153.441 141.142 153.441C140.819 153.441 140.556 153.178 140.556 152.855C140.556 152.532 140.819 152.269 141.142 152.269C141.465 152.269 141.728 152.532 141.728 152.855Z" fill="#CBCAFF" fill-opacity="0.5"/>
<path d="M186.237 170.425C186.237 170.748 185.975 171.01 185.652 171.01C185.328 171.01 185.066 170.748 185.066 170.425C185.066 170.101 185.328 169.839 185.652 169.839C185.975 169.839 186.237 170.101 186.237 170.425Z" fill="#CBCAFF" fill-opacity="0.5"/>
<path d="M5.85651 125.329C5.85651 125.653 5.59431 125.915 5.27086 125.915C4.94742 125.915 4.68521 125.653 4.68521 125.329C4.68521 125.006 4.94742 124.744 5.27086 124.744C5.59431 124.744 5.85651 125.006 5.85651 125.329Z" fill="#CBCAFF" fill-opacity="0.5"/>
<path d="M1.1713 57.3938C1.1713 57.7173 0.909098 57.9795 0.585652 57.9795C0.262205 57.9795 0 57.7173 0 57.3938C0 57.0704 0.262205 56.8082 0.585652 56.8082C0.909098 56.8082 1.1713 57.0704 1.1713 57.3938Z" fill="#CBCAFF" fill-opacity="0.5"/>
<path d="M48.6091 0.585652C48.6091 0.909098 48.3469 1.1713 48.0234 1.1713C47.7 1.1713 47.4378 0.909098 47.4378 0.585652C47.4378 0.262205 47.7 0 48.0234 0C48.3469 0 48.6091 0.262205 48.6091 0.585652Z" fill="#CBCAFF" fill-opacity="0.5"/>
<path d="M108.346 8.78477C108.346 9.10822 108.083 9.37042 107.76 9.37042C107.436 9.37042 107.174 9.10822 107.174 8.78477C107.174 8.46133 107.436 8.19912 107.76 8.19912C108.083 8.19912 108.346 8.46133 108.346 8.78477Z" fill="#CBCAFF" fill-opacity="0.5"/>
<path d="M5.85651 4.68521C5.85651 5.00866 5.59431 5.27086 5.27086 5.27086C4.94742 5.27086 4.68521 5.00866 4.68521 4.68521C4.68521 4.36177 4.94742 4.09956 5.27086 4.09956C5.59431 4.09956 5.85651 4.36177 5.85651 4.68521Z" fill="#CBCAFF" fill-opacity="0.5"/>
<path d="M199.707 30.4539C199.707 30.7773 199.445 31.0395 199.122 31.0395C198.798 31.0395 198.536 30.7773 198.536 30.4539C198.536 30.1304 198.798 29.8682 199.122 29.8682C199.445 29.8682 199.707 30.1304 199.707 30.4539Z" fill="#CBCAFF" fill-opacity="0.5"/>
<path d="M180.966 194.436C180.966 194.76 180.704 195.022 180.381 195.022C180.057 195.022 179.795 194.76 179.795 194.436C179.795 194.113 180.057 193.851 180.381 193.851C180.704 193.851 180.966 194.113 180.966 194.436Z" fill="#CBCAFF" fill-opacity="0.5"/>
<path d="M21.0835 98.3895C21.0835 98.7129 20.8212 98.9751 20.4978 98.9751C20.1744 98.9751 19.9122 98.7129 19.9122 98.3895C19.9122 98.066 20.1744 97.8038 20.4978 97.8038C20.8212 97.8038 21.0835 98.066 21.0835 98.3895Z" fill="#CBCAFF" fill-opacity="0.5"/>
<path d="M18.1552 139.385C18.1552 139.709 17.893 139.971 17.5695 139.971C17.2461 139.971 16.9839 139.709 16.9839 139.385C16.9839 139.062 17.2461 138.799 17.5695 138.799C17.893 138.799 18.1552 139.062 18.1552 139.385Z" fill="#CBCAFF" fill-opacity="0.5"/>
<path d="M43.631 34.407C43.631 34.6496 43.4344 34.8463 43.1918 34.8463C42.9492 34.8463 42.7526 34.6496 42.7526 34.407C42.7526 34.1644 42.9492 33.9678 43.1918 33.9678C43.4344 33.9678 43.631 34.1644 43.631 34.407Z" fill="#CBCAFF" fill-opacity="0.5"/>
<path d="M16.6911 49.0483C16.6911 49.2909 16.4944 49.4876 16.2518 49.4876C16.0092 49.4876 15.8126 49.2909 15.8126 49.0483C15.8126 48.8057 16.0092 48.6091 16.2518 48.6091C16.4944 48.6091 16.6911 48.8057 16.6911 49.0483Z" fill="#CBCAFF" fill-opacity="0.5"/>
<path d="M140.264 21.5227C140.264 21.7653 140.067 21.9619 139.824 21.9619C139.582 21.9619 139.385 21.7653 139.385 21.5227C139.385 21.2801 139.582 21.0835 139.824 21.0835C140.067 21.0835 140.264 21.2801 140.264 21.5227Z" fill="#CBCAFF" fill-opacity="0.5"/>
<path d="M81.6984 42.0205C81.6984 42.2631 81.5017 42.4597 81.2591 42.4597C81.0166 42.4597 80.8199 42.2631 80.8199 42.0205C80.8199 41.7779 81.0166 41.5813 81.2591 41.5813C81.5017 41.5813 81.6984 41.7779 81.6984 42.0205Z" fill="#CBCAFF" fill-opacity="0.5"/>
<path d="M44.8023 37.3353C44.8023 37.5779 44.6057 37.7745 44.3631 37.7745C44.1205 37.7745 43.9239 37.5779 43.9239 37.3353C43.9239 37.0927 44.1205 36.896 44.3631 36.896C44.6057 36.896 44.8023 37.0927 44.8023 37.3353Z" fill="#CBCAFF" fill-opacity="0.5"/>
<path d="M74.6706 149.195C74.6706 149.437 74.4739 149.634 74.2313 149.634C73.9887 149.634 73.7921 149.437 73.7921 149.195C73.7921 148.952 73.9887 148.755 74.2313 148.755C74.4739 148.755 74.6706 148.952 74.6706 149.195Z" fill="#CBCAFF" fill-opacity="0.5"/>
<path d="M188.873 146.852C188.873 147.095 188.676 147.291 188.433 147.291C188.191 147.291 187.994 147.095 187.994 146.852C187.994 146.61 188.191 146.413 188.433 146.413C188.676 146.413 188.873 146.61 188.873 146.852Z" fill="#CBCAFF" fill-opacity="0.5"/>
<path d="M174.817 176.135C174.817 176.377 174.62 176.574 174.378 176.574C174.135 176.574 173.939 176.377 173.939 176.135C173.939 175.892 174.135 175.695 174.378 175.695C174.62 175.695 174.817 175.892 174.817 176.135Z" fill="#CBCAFF" fill-opacity="0.5"/>
<path d="M120.937 202.489C120.937 202.732 120.74 202.928 120.498 202.928C120.255 202.928 120.059 202.732 120.059 202.489C120.059 202.246 120.255 202.05 120.498 202.05C120.74 202.05 120.937 202.246 120.937 202.489Z" fill="#CBCAFF" fill-opacity="0.5"/>
<path d="M21.9619 128.697C21.9619 128.939 21.7653 129.136 21.5227 129.136C21.2801 129.136 21.0835 128.939 21.0835 128.697C21.0835 128.454 21.2801 128.258 21.5227 128.258C21.7653 128.258 21.9619 128.454 21.9619 128.697Z" fill="#CBCAFF" fill-opacity="0.5"/>
<path d="M32.5037 138.653C32.5037 138.896 32.307 139.092 32.0644 139.092C31.8218 139.092 31.6252 138.896 31.6252 138.653C31.6252 138.41 31.8218 138.214 32.0644 138.214C32.307 138.214 32.5037 138.41 32.5037 138.653Z" fill="#CBCAFF" fill-opacity="0.5"/>
<path d="M18.448 112.884C18.448 113.127 18.2514 113.324 18.0088 113.324C17.7662 113.324 17.5695 113.127 17.5695 112.884C17.5695 112.642 17.7662 112.445 18.0088 112.445C18.2514 112.445 18.448 112.642 18.448 112.884Z" fill="#CBCAFF" fill-opacity="0.5"/>
<path d="M32.5037 81.8448C32.5037 82.0874 32.307 82.284 32.0644 82.284C31.8218 82.284 31.6252 82.0874 31.6252 81.8448C31.6252 81.6022 31.8218 81.4056 32.0644 81.4056C32.307 81.4056 32.5037 81.6022 32.5037 81.8448Z" fill="#CBCAFF" fill-opacity="0.5"/>
<path d="M56.5154 133.968C56.5154 134.21 56.3187 134.407 56.0761 134.407C55.8335 134.407 55.6369 134.21 55.6369 133.968C55.6369 133.725 55.8335 133.529 56.0761 133.529C56.3187 133.529 56.5154 133.725 56.5154 133.968Z" fill="#CBCAFF" fill-opacity="0.5"/>
<path d="M181.845 202.489C181.845 202.732 181.648 202.928 181.406 202.928C181.163 202.928 180.966 202.732 180.966 202.489C180.966 202.246 181.163 202.05 181.406 202.05C181.648 202.05 181.845 202.246 181.845 202.489Z" fill="#CBCAFF" fill-opacity="0.5"/>
<path d="M66.4715 200.732C66.4715 200.975 66.2748 201.171 66.0322 201.171C65.7896 201.171 65.593 200.975 65.593 200.732C65.593 200.489 65.7896 200.293 66.0322 200.293C66.2748 200.293 66.4715 200.489 66.4715 200.732Z" fill="#CBCAFF" fill-opacity="0.5"/>
<path d="M95.754 191.362C95.754 191.604 95.5574 191.801 95.3148 191.801C95.0722 191.801 94.8755 191.604 94.8755 191.362C94.8755 191.119 95.0722 190.922 95.3148 190.922C95.5574 190.922 95.754 191.119 95.754 191.362Z" fill="#CBCAFF" fill-opacity="0.5"/>
<path d="M122.108 194.29C122.108 194.532 121.912 194.729 121.669 194.729C121.427 194.729 121.23 194.532 121.23 194.29C121.23 194.047 121.427 193.851 121.669 193.851C121.912 193.851 122.108 194.047 122.108 194.29Z" fill="#CBCAFF" fill-opacity="0.5"/>
<path d="M148.463 191.362C148.463 191.604 148.266 191.801 148.023 191.801C147.781 191.801 147.584 191.604 147.584 191.362C147.584 191.119 147.781 190.922 148.023 190.922C148.266 190.922 148.463 191.119 148.463 191.362Z" fill="#CBCAFF" fill-opacity="0.5"/>
<path d="M198.243 184.919C198.243 185.162 198.046 185.359 197.804 185.359C197.561 185.359 197.365 185.162 197.365 184.919C197.365 184.677 197.561 184.48 197.804 184.48C198.046 184.48 198.243 184.677 198.243 184.919Z" fill="#CBCAFF" fill-opacity="0.5"/>
<path d="M16.1054 191.947C16.1054 192.19 15.9088 192.387 15.6662 192.387C15.4236 192.387 15.2269 192.19 15.2269 191.947C15.2269 191.705 15.4236 191.508 15.6662 191.508C15.9088 191.508 16.1054 191.705 16.1054 191.947Z" fill="#CBCAFF" fill-opacity="0.5"/>
<path d="M56.5154 181.406C56.5154 181.648 56.3187 181.845 56.0761 181.845C55.8335 181.845 55.6369 181.648 55.6369 181.406C55.6369 181.163 55.8335 180.966 56.0761 180.966C56.3187 180.966 56.5154 181.163 56.5154 181.406Z" fill="#CBCAFF" fill-opacity="0.5"/>
<path d="M105.71 170.278C105.71 170.521 105.513 170.717 105.271 170.717C105.028 170.717 104.832 170.521 104.832 170.278C104.832 170.036 105.028 169.839 105.271 169.839C105.513 169.839 105.71 170.036 105.71 170.278Z" fill="#CBCAFF" fill-opacity="0.5"/>
<path d="M136.75 168.521C136.75 168.764 136.553 168.96 136.31 168.96C136.068 168.96 135.871 168.764 135.871 168.521C135.871 168.279 136.068 168.082 136.31 168.082C136.553 168.082 136.75 168.279 136.75 168.521Z" fill="#CBCAFF" fill-opacity="0.5"/>
<path d="M128.551 175.549C128.551 175.792 128.354 175.988 128.111 175.988C127.869 175.988 127.672 175.792 127.672 175.549C127.672 175.306 127.869 175.11 128.111 175.11C128.354 175.11 128.551 175.306 128.551 175.549Z" fill="#CBCAFF" fill-opacity="0.5"/>
<path d="M131.479 177.892C131.479 178.134 131.282 178.331 131.04 178.331C130.797 178.331 130.6 178.134 130.6 177.892C130.6 177.649 130.797 177.452 131.04 177.452C131.282 177.452 131.479 177.649 131.479 177.892Z" fill="#CBCAFF" fill-opacity="0.5"/>
<path d="M47.7306 201.318C47.7306 201.56 47.5339 201.757 47.2914 201.757C47.0488 201.757 46.8521 201.56 46.8521 201.318C46.8521 201.075 47.0488 200.878 47.2914 200.878C47.5339 200.878 47.7306 201.075 47.7306 201.318Z" fill="#CBCAFF" fill-opacity="0.5"/>
<path d="M31.3324 179.649C31.3324 179.891 31.1357 180.088 30.8931 180.088C30.6505 180.088 30.4539 179.891 30.4539 179.649C30.4539 179.406 30.6505 179.209 30.8931 179.209C31.1357 179.209 31.3324 179.406 31.3324 179.649Z" fill="#CBCAFF" fill-opacity="0.5"/>
<path d="M27.8184 179.649C27.8184 179.891 27.6218 180.088 27.3792 180.088C27.1366 180.088 26.94 179.891 26.94 179.649C26.94 179.406 27.1366 179.209 27.3792 179.209C27.6218 179.209 27.8184 179.406 27.8184 179.649Z" fill="#CBCAFF" fill-opacity="0.5"/>
<path d="M44.2167 171.449C44.2167 171.692 44.02 171.889 43.7775 171.889C43.5349 171.889 43.3382 171.692 43.3382 171.449C43.3382 171.207 43.5349 171.01 43.7775 171.01C44.02 171.01 44.2167 171.207 44.2167 171.449Z" fill="#CBCAFF" fill-opacity="0.5"/>
<path d="M55.9297 114.056C55.9297 114.298 55.7331 114.495 55.4905 114.495C55.2479 114.495 55.0512 114.298 55.0512 114.056C55.0512 113.813 55.2479 113.616 55.4905 113.616C55.7331 113.616 55.9297 113.813 55.9297 114.056Z" fill="#CBCAFF" fill-opacity="0.5"/>
<path d="M87.5549 111.127C87.5549 111.37 87.3582 111.567 87.1157 111.567C86.8731 111.567 86.6764 111.37 86.6764 111.127C86.6764 110.885 86.8731 110.688 87.1157 110.688C87.3582 110.688 87.5549 110.885 87.5549 111.127Z" fill="#CBCAFF" fill-opacity="0.5"/>
<path d="M102.196 102.343C102.196 102.585 102 102.782 101.757 102.782C101.514 102.782 101.318 102.585 101.318 102.343C101.318 102.1 101.514 101.903 101.757 101.903C102 101.903 102.196 102.1 102.196 102.343Z" fill="#CBCAFF" fill-opacity="0.5"/>
<path d="M103.367 118.155C103.367 118.398 103.171 118.594 102.928 118.594C102.686 118.594 102.489 118.398 102.489 118.155C102.489 117.913 102.686 117.716 102.928 117.716C103.171 117.716 103.367 117.913 103.367 118.155Z" fill="#CBCAFF" fill-opacity="0.5"/>
<path d="M110.981 113.47C110.981 113.713 110.784 113.909 110.542 113.909C110.299 113.909 110.102 113.713 110.102 113.47C110.102 113.227 110.299 113.031 110.542 113.031C110.784 113.031 110.981 113.227 110.981 113.47Z" fill="#CBCAFF" fill-opacity="0.5"/>
<path d="M115.666 184.334C115.666 184.576 115.47 184.773 115.227 184.773C114.984 184.773 114.788 184.576 114.788 184.334C114.788 184.091 114.984 183.895 115.227 183.895C115.47 183.895 115.666 184.091 115.666 184.334Z" fill="#CBCAFF" fill-opacity="0.5"/>
<path d="M86.3836 201.318C86.3836 201.56 86.1869 201.757 85.9444 201.757C85.7018 201.757 85.5051 201.56 85.5051 201.318C85.5051 201.075 85.7018 200.878 85.9444 200.878C86.1869 200.878 86.3836 201.075 86.3836 201.318Z" fill="#CBCAFF" fill-opacity="0.5"/>
<path d="M134.993 198.975C134.993 199.218 134.796 199.414 134.553 199.414C134.311 199.414 134.114 199.218 134.114 198.975C134.114 198.733 134.311 198.536 134.553 198.536C134.796 198.536 134.993 198.733 134.993 198.975Z" fill="#CBCAFF" fill-opacity="0.5"/>
<path d="M27.2328 191.362C27.2328 191.604 27.0361 191.801 26.7936 191.801C26.551 191.801 26.3543 191.604 26.3543 191.362C26.3543 191.119 26.551 190.922 26.7936 190.922C27.0361 190.922 27.2328 191.119 27.2328 191.362Z" fill="#CBCAFF" fill-opacity="0.5"/>
<path d="M15.5198 163.836C15.5198 164.079 15.3231 164.275 15.0805 164.275C14.8379 164.275 14.6413 164.079 14.6413 163.836C14.6413 163.593 14.8379 163.397 15.0805 163.397C15.3231 163.397 15.5198 163.593 15.5198 163.836Z" fill="#CBCAFF" fill-opacity="0.5"/>
<path d="M194.143 145.095C194.143 145.338 193.947 145.534 193.704 145.534C193.462 145.534 193.265 145.338 193.265 145.095C193.265 144.853 193.462 144.656 193.704 144.656C193.947 144.656 194.143 144.853 194.143 145.095Z" fill="#CBCAFF" fill-opacity="0.5"/>
<path d="M142.606 134.553C142.606 134.796 142.409 134.993 142.167 134.993C141.924 134.993 141.728 134.796 141.728 134.553C141.728 134.311 141.924 134.114 142.167 134.114C142.409 134.114 142.606 134.311 142.606 134.553Z" fill="#CBCAFF" fill-opacity="0.5"/>
<path d="M162.518 165.007C162.518 165.25 162.322 165.447 162.079 165.447C161.836 165.447 161.64 165.25 161.64 165.007C161.64 164.765 161.836 164.568 162.079 164.568C162.322 164.568 162.518 164.765 162.518 165.007Z" fill="#CBCAFF" fill-opacity="0.5"/>
<path d="M160.761 199.561C160.761 199.803 160.565 200 160.322 200C160.08 200 159.883 199.803 159.883 199.561C159.883 199.318 160.08 199.122 160.322 199.122C160.565 199.122 160.761 199.318 160.761 199.561Z" fill="#CBCAFF" fill-opacity="0.5"/>
<path d="M200 200.732C200 200.975 199.803 201.171 199.561 201.171C199.318 201.171 199.122 200.975 199.122 200.732C199.122 200.489 199.318 200.293 199.561 200.293C199.803 200.293 200 200.489 200 200.732Z" fill="#CBCAFF" fill-opacity="0.5"/>
<path d="M41.8741 184.919C41.8741 185.162 41.6774 185.359 41.4348 185.359C41.1923 185.359 40.9956 185.162 40.9956 184.919C40.9956 184.677 41.1923 184.48 41.4348 184.48C41.6774 184.48 41.8741 184.677 41.8741 184.919Z" fill="#CBCAFF" fill-opacity="0.5"/>
<path d="M99.2679 182.577C99.2679 182.819 99.0713 183.016 98.8287 183.016C98.5861 183.016 98.3895 182.819 98.3895 182.577C98.3895 182.334 98.5861 182.138 98.8287 182.138C99.0713 182.138 99.2679 182.334 99.2679 182.577Z" fill="#CBCAFF" fill-opacity="0.5"/>
<path d="M17.2767 89.4583C17.2767 89.7009 17.0801 89.8975 16.8375 89.8975C16.5949 89.8975 16.3982 89.7009 16.3982 89.4583C16.3982 89.2157 16.5949 89.019 16.8375 89.019C17.0801 89.019 17.2767 89.2157 17.2767 89.4583Z" fill="#CBCAFF" fill-opacity="0.5"/>
<path d="M32.5037 124.012C32.5037 124.254 32.307 124.451 32.0644 124.451C31.8218 124.451 31.6252 124.254 31.6252 124.012C31.6252 123.769 31.8218 123.572 32.0644 123.572C32.307 123.572 32.5037 123.769 32.5037 124.012Z" fill="#CBCAFF" fill-opacity="0.5"/>
<path d="M124.451 26.7936C124.451 27.0361 124.254 27.2328 124.012 27.2328C123.769 27.2328 123.572 27.0361 123.572 26.7936C123.572 26.551 123.769 26.3543 124.012 26.3543C124.254 26.3543 124.451 26.551 124.451 26.7936Z" fill="#CBCAFF" fill-opacity="0.5"/>
<path d="M107.467 70.7174C107.467 70.96 107.27 71.1567 107.028 71.1567C106.785 71.1567 106.589 70.96 106.589 70.7174C106.589 70.4748 106.785 70.2782 107.028 70.2782C107.27 70.2782 107.467 70.4748 107.467 70.7174Z" fill="#CBCAFF" fill-opacity="0.5"/>
<path d="M154.319 87.1157C154.319 87.3582 154.123 87.5549 153.88 87.5549C153.637 87.5549 153.441 87.3582 153.441 87.1157C153.441 86.8731 153.637 86.6764 153.88 86.6764C154.123 86.6764 154.319 86.8731 154.319 87.1157Z" fill="#CBCAFF" fill-opacity="0.5"/>
<path d="M195.315 101.757C195.315 102 195.118 102.196 194.876 102.196C194.633 102.196 194.436 102 194.436 101.757C194.436 101.514 194.633 101.318 194.876 101.318C195.118 101.318 195.315 101.514 195.315 101.757Z" fill="#CBCAFF" fill-opacity="0.5"/>
<path d="M179.502 97.6574C179.502 97.9 179.306 98.0966 179.063 98.0966C178.82 98.0966 178.624 97.9 178.624 97.6574C178.624 97.4148 178.82 97.2182 179.063 97.2182C179.306 97.2182 179.502 97.4148 179.502 97.6574Z" fill="#CBCAFF" fill-opacity="0.5"/>
<path d="M184.773 121.669C184.773 121.912 184.576 122.108 184.334 122.108C184.091 122.108 183.895 121.912 183.895 121.669C183.895 121.427 184.091 121.23 184.334 121.23C184.576 121.23 184.773 121.427 184.773 121.669Z" fill="#CBCAFF" fill-opacity="0.5"/>
<path d="M61.7862 42.0205C61.7862 42.2631 61.5896 42.4597 61.347 42.4597C61.1044 42.4597 60.9078 42.2631 60.9078 42.0205C60.9078 41.7779 61.1044 41.5813 61.347 41.5813C61.5896 41.5813 61.7862 41.7779 61.7862 42.0205Z" fill="#CBCAFF" fill-opacity="0.5"/>
<path d="M43.0454 102.343C43.0454 102.585 42.8487 102.782 42.6061 102.782C42.3636 102.782 42.1669 102.585 42.1669 102.343C42.1669 102.1 42.3636 101.903 42.6061 101.903C42.8487 101.903 43.0454 102.1 43.0454 102.343Z" fill="#CBCAFF" fill-opacity="0.5"/>
<path d="M95.1684 97.6574C95.1684 97.9 94.9717 98.0966 94.7291 98.0966C94.4865 98.0966 94.2899 97.9 94.2899 97.6574C94.2899 97.4148 94.4865 97.2182 94.7291 97.2182C94.9717 97.2182 95.1684 97.4148 95.1684 97.6574Z" fill="#CBCAFF" fill-opacity="0.5"/>
<path d="M141.435 116.398C141.435 116.641 141.238 116.837 140.996 116.837C140.753 116.837 140.556 116.641 140.556 116.398C140.556 116.156 140.753 115.959 140.996 115.959C141.238 115.959 141.435 116.156 141.435 116.398Z" fill="#CBCAFF" fill-opacity="0.5"/>
<path d="M129.722 97.6574C129.722 97.9 129.525 98.0966 129.283 98.0966C129.04 98.0966 128.843 97.9 128.843 97.6574C128.843 97.4148 129.04 97.2182 129.283 97.2182C129.525 97.2182 129.722 97.4148 129.722 97.6574Z" fill="#CBCAFF" fill-opacity="0.5"/>
<path d="M106.881 48.4627C106.881 48.7052 106.685 48.9019 106.442 48.9019C106.2 48.9019 106.003 48.7052 106.003 48.4627C106.003 48.2201 106.2 48.0234 106.442 48.0234C106.685 48.0234 106.881 48.2201 106.881 48.4627Z" fill="#CBCAFF" fill-opacity="0.5"/>
<path d="M149.048 51.3909C149.048 51.6335 148.852 51.8302 148.609 51.8302C148.366 51.8302 148.17 51.6335 148.17 51.3909C148.17 51.1483 148.366 50.9517 148.609 50.9517C148.852 50.9517 149.048 51.1483 149.048 51.3909Z" fill="#CBCAFF" fill-opacity="0.5"/>
<path d="M142.606 20.3514C142.606 20.594 142.409 20.7906 142.167 20.7906C141.924 20.7906 141.728 20.594 141.728 20.3514C141.728 20.1088 141.924 19.9122 142.167 19.9122C142.409 19.9122 142.606 20.1088 142.606 20.3514Z" fill="#CBCAFF" fill-opacity="0.5"/>
<path d="M153.148 31.4788C153.148 31.7214 152.951 31.918 152.709 31.918C152.466 31.918 152.269 31.7214 152.269 31.4788C152.269 31.2362 152.466 31.0395 152.709 31.0395C152.951 31.0395 153.148 31.2362 153.148 31.4788Z" fill="#CBCAFF" fill-opacity="0.5"/>
<path d="M127.965 10.981C127.965 11.2236 127.768 11.4202 127.526 11.4202C127.283 11.4202 127.086 11.2236 127.086 10.981C127.086 10.7384 127.283 10.5417 127.526 10.5417C127.768 10.5417 127.965 10.7384 127.965 10.981Z" fill="#CBCAFF" fill-opacity="0.5"/>
<path d="M187.701 20.937C187.701 21.1796 187.505 21.3763 187.262 21.3763C187.019 21.3763 186.823 21.1796 186.823 20.937C186.823 20.6945 187.019 20.4978 187.262 20.4978C187.505 20.4978 187.701 20.6945 187.701 20.937Z" fill="#CBCAFF" fill-opacity="0.5"/>
<path d="M178.331 4.5388C178.331 4.78138 178.134 4.97804 177.892 4.97804C177.649 4.97804 177.452 4.78138 177.452 4.5388C177.452 4.29621 177.649 4.09956 177.892 4.09956C178.134 4.09956 178.331 4.29621 178.331 4.5388Z" fill="#CBCAFF" fill-opacity="0.5"/>
<path d="M187.116 42.0205C187.116 42.2631 186.919 42.4597 186.676 42.4597C186.434 42.4597 186.237 42.2631 186.237 42.0205C186.237 41.7779 186.434 41.5813 186.676 41.5813C186.919 41.5813 187.116 41.7779 187.116 42.0205Z" fill="#CBCAFF" fill-opacity="0.5"/>
<path d="M159.004 13.9092C159.004 14.1518 158.808 14.3485 158.565 14.3485C158.323 14.3485 158.126 14.1518 158.126 13.9092C158.126 13.6666 158.323 13.47 158.565 13.47C158.808 13.47 159.004 13.6666 159.004 13.9092Z" fill="#CBCAFF" fill-opacity="0.5"/>
<path d="M55.9297 148.609C55.9297 148.852 55.7331 149.048 55.4905 149.048C55.2479 149.048 55.0512 148.852 55.0512 148.609C55.0512 148.366 55.2479 148.17 55.4905 148.17C55.7331 148.17 55.9297 148.366 55.9297 148.609Z" fill="#CBCAFF" fill-opacity="0.5"/>
<path d="M116.837 163.25C116.837 163.493 116.641 163.69 116.398 163.69C116.156 163.69 115.959 163.493 115.959 163.25C115.959 163.008 116.156 162.811 116.398 162.811C116.641 162.811 116.837 163.008 116.837 163.25Z" fill="#CBCAFF" fill-opacity="0.5"/>
<path d="M81.1127 75.9883C81.1127 76.2309 80.9161 76.4275 80.6735 76.4275C80.4309 76.4275 80.2343 76.2309 80.2343 75.9883C80.2343 75.7457 80.4309 75.549 80.6735 75.549C80.9161 75.549 81.1127 75.7457 81.1127 75.9883Z" fill="#CBCAFF" fill-opacity="0.5"/>
<path d="M36.0176 60.7613C36.0176 61.0039 35.8209 61.2006 35.5783 61.2006C35.3357 61.2006 35.1391 61.0039 35.1391 60.7613C35.1391 60.5188 35.3357 60.3221 35.5783 60.3221C35.8209 60.3221 36.0176 60.5188 36.0176 60.7613Z" fill="#CBCAFF" fill-opacity="0.5"/>
<path d="M44.8023 23.8653C44.8023 24.1079 44.6057 24.3045 44.3631 24.3045C44.1205 24.3045 43.9239 24.1079 43.9239 23.8653C43.9239 23.6227 44.1205 23.4261 44.3631 23.4261C44.6057 23.4261 44.8023 23.6227 44.8023 23.8653Z" fill="#CBCAFF" fill-opacity="0.5"/>
<path d="M143.777 84.7731C143.777 85.0156 143.581 85.2123 143.338 85.2123C143.096 85.2123 142.899 85.0156 142.899 84.7731C142.899 84.5305 143.096 84.3338 143.338 84.3338C143.581 84.3338 143.777 84.5305 143.777 84.7731Z" fill="#CBCAFF" fill-opacity="0.5"/>
<path d="M147.877 69.5461C147.877 69.7887 147.68 69.9854 147.438 69.9854C147.195 69.9854 146.999 69.7887 146.999 69.5461C146.999 69.3035 147.195 69.1069 147.438 69.1069C147.68 69.1069 147.877 69.3035 147.877 69.5461Z" fill="#CBCAFF" fill-opacity="0.5"/>
<path d="M198.243 19.1801C198.243 19.4227 198.046 19.6193 197.804 19.6193C197.561 19.6193 197.365 19.4227 197.365 19.1801C197.365 18.9375 197.561 18.7408 197.804 18.7408C198.046 18.7408 198.243 18.9375 198.243 19.1801Z" fill="#CBCAFF" fill-opacity="0.5"/>
<path d="M195.315 6.88141C195.315 7.12399 195.118 7.32064 194.876 7.32064C194.633 7.32064 194.436 7.12399 194.436 6.88141C194.436 6.63882 194.633 6.44217 194.876 6.44217C195.118 6.44217 195.315 6.63882 195.315 6.88141Z" fill="#CBCAFF" fill-opacity="0.5"/>
<path d="M200 4.5388C200 4.78138 199.803 4.97804 199.561 4.97804C199.318 4.97804 199.122 4.78138 199.122 4.5388C199.122 4.29621 199.318 4.09956 199.561 4.09956C199.803 4.09956 200 4.29621 200 4.5388Z" fill="#CBCAFF" fill-opacity="0.5"/>
<path d="M31.3324 10.981C31.3324 11.2236 31.1357 11.4202 30.8931 11.4202C30.6505 11.4202 30.4539 11.2236 30.4539 10.981C30.4539 10.7384 30.6505 10.5417 30.8931 10.5417C31.1357 10.5417 31.3324 10.7384 31.3324 10.981Z" fill="#CBCAFF" fill-opacity="0.5"/>
<path d="M13.7628 19.1801C13.7628 19.4227 13.5662 19.6193 13.3236 19.6193C13.081 19.6193 12.8843 19.4227 12.8843 19.1801C12.8843 18.9375 13.081 18.7408 13.3236 18.7408C13.5662 18.7408 13.7628 18.9375 13.7628 19.1801Z" fill="#CBCAFF" fill-opacity="0.5"/>
<path d="M72.328 19.7657C72.328 20.0083 72.1313 20.205 71.8887 20.205C71.6461 20.205 71.4495 20.0083 71.4495 19.7657C71.4495 19.5232 71.6461 19.3265 71.8887 19.3265C72.1313 19.3265 72.328 19.5232 72.328 19.7657Z" fill="#CBCAFF" fill-opacity="0.5"/>
<path d="M102.196 22.1083C102.196 22.3509 102 22.5476 101.757 22.5476C101.514 22.5476 101.318 22.3509 101.318 22.1083C101.318 21.8658 101.514 21.6691 101.757 21.6691C102 21.6691 102.196 21.8658 102.196 22.1083Z" fill="#CBCAFF" fill-opacity="0.5"/>
<path d="M14.3485 112.884C14.3485 113.127 14.1518 113.324 13.9092 113.324C13.6666 113.324 13.47 113.127 13.47 112.884C13.47 112.642 13.6666 112.445 13.9092 112.445C14.1518 112.445 14.3485 112.642 14.3485 112.884Z" fill="#CBCAFF" fill-opacity="0.5"/>
<path d="M6.14934 151.537C6.14934 151.78 5.95269 151.977 5.7101 151.977C5.46752 151.977 5.27086 151.78 5.27086 151.537C5.27086 151.295 5.46752 151.098 5.7101 151.098C5.95269 151.098 6.14934 151.295 6.14934 151.537Z" fill="#CBCAFF" fill-opacity="0.5"/>
<path d="M5.56369 85.3587C5.56369 85.6013 5.36704 85.798 5.12445 85.798C4.88187 85.798 4.68521 85.6013 4.68521 85.3587C4.68521 85.1161 4.88187 84.9195 5.12445 84.9195C5.36704 84.9195 5.56369 85.1161 5.56369 85.3587Z" fill="#CBCAFF" fill-opacity="0.5"/>
<path d="M10.2489 30.3075C10.2489 30.5501 10.0522 30.7467 9.80966 30.7467C9.56708 30.7467 9.37042 30.5501 9.37042 30.3075C9.37042 30.0649 9.56708 29.8682 9.80966 29.8682C10.0522 29.8682 10.2489 30.0649 10.2489 30.3075Z" fill="#CBCAFF" fill-opacity="0.5"/>
<path d="M32.5037 41.4348C32.5037 41.6774 32.307 41.8741 32.0644 41.8741C31.8218 41.8741 31.6252 41.6774 31.6252 41.4348C31.6252 41.1923 31.8218 40.9956 32.0644 40.9956C32.307 40.9956 32.5037 41.1923 32.5037 41.4348Z" fill="#CBCAFF" fill-opacity="0.5"/>
<path d="M40.1171 75.4026C40.1171 75.6452 39.9205 75.8419 39.6779 75.8419C39.4353 75.8419 39.2387 75.6452 39.2387 75.4026C39.2387 75.16 39.4353 74.9634 39.6779 74.9634C39.9205 74.9634 40.1171 75.16 40.1171 75.4026Z" fill="#CBCAFF" fill-opacity="0.5"/>
<path d="M60.6149 77.1596C60.6149 77.4022 60.4183 77.5988 60.1757 77.5988C59.9331 77.5988 59.7365 77.4022 59.7365 77.1596C59.7365 76.917 59.9331 76.7204 60.1757 76.7204C60.4183 76.7204 60.6149 76.917 60.6149 77.1596Z" fill="#CBCAFF" fill-opacity="0.5"/>
<path d="M83.4553 68.9605C83.4553 69.203 83.2587 69.3997 83.0161 69.3997C82.7735 69.3997 82.5769 69.203 82.5769 68.9605C82.5769 68.7179 82.7735 68.5212 83.0161 68.5212C83.2587 68.5212 83.4553 68.7179 83.4553 68.9605Z" fill="#CBCAFF" fill-opacity="0.5"/>
<path d="M98.6823 80.6735C98.6823 80.9161 98.4856 81.1127 98.243 81.1127C98.0005 81.1127 97.8038 80.9161 97.8038 80.6735C97.8038 80.4309 98.0005 80.2343 98.243 80.2343C98.4856 80.2343 98.6823 80.4309 98.6823 80.6735Z" fill="#CBCAFF" fill-opacity="0.5"/>
<path d="M135.578 188.433C135.578 188.676 135.382 188.873 135.139 188.873C134.896 188.873 134.7 188.676 134.7 188.433C134.7 188.191 134.896 187.994 135.139 187.994C135.382 187.994 135.578 188.191 135.578 188.433Z" fill="#CBCAFF" fill-opacity="0.5"/>
<path d="M178.331 184.919C178.331 185.162 178.134 185.359 177.892 185.359C177.649 185.359 177.452 185.162 177.452 184.919C177.452 184.677 177.649 184.48 177.892 184.48C178.134 184.48 178.331 184.677 178.331 184.919Z" fill="#CBCAFF" fill-opacity="0.5"/>
<path d="M197.072 164.422C197.072 164.664 196.875 164.861 196.632 164.861C196.39 164.861 196.193 164.664 196.193 164.422C196.193 164.179 196.39 163.982 196.632 163.982C196.875 163.982 197.072 164.179 197.072 164.422Z" fill="#CBCAFF" fill-opacity="0.5"/>
<path d="M156.076 138.653C156.076 138.896 155.879 139.092 155.637 139.092C155.394 139.092 155.198 138.896 155.198 138.653C155.198 138.41 155.394 138.214 155.637 138.214C155.879 138.214 156.076 138.41 156.076 138.653Z" fill="#CBCAFF" fill-opacity="0.5"/>
<path d="M190.044 131.04C190.044 131.282 189.847 131.479 189.605 131.479C189.362 131.479 189.165 131.282 189.165 131.04C189.165 130.797 189.362 130.6 189.605 130.6C189.847 130.6 190.044 130.797 190.044 131.04Z" fill="#CBCAFF" fill-opacity="0.5"/>
<path d="M167.789 126.354C167.789 126.597 167.592 126.794 167.35 126.794C167.107 126.794 166.911 126.597 166.911 126.354C166.911 126.112 167.107 125.915 167.35 125.915C167.592 125.915 167.789 126.112 167.789 126.354Z" fill="#CBCAFF" fill-opacity="0.5"/>
<path d="M170.132 112.299C170.132 112.541 169.935 112.738 169.693 112.738C169.45 112.738 169.253 112.541 169.253 112.299C169.253 112.056 169.45 111.859 169.693 111.859C169.935 111.859 170.132 112.056 170.132 112.299Z" fill="#CBCAFF" fill-opacity="0.5"/>
<path d="M170.132 95.9004C170.132 96.143 169.935 96.3397 169.693 96.3397C169.45 96.3397 169.253 96.143 169.253 95.9004C169.253 95.6579 169.45 95.4612 169.693 95.4612C169.935 95.4612 170.132 95.6579 170.132 95.9004Z" fill="#CBCAFF" fill-opacity="0.5"/>
<path d="M197.657 90.0439C197.657 90.2865 197.461 90.4832 197.218 90.4832C196.976 90.4832 196.779 90.2865 196.779 90.0439C196.779 89.8013 196.976 89.6047 197.218 89.6047C197.461 89.6047 197.657 89.8013 197.657 90.0439Z" fill="#CBCAFF" fill-opacity="0.5"/>
<path d="M131.479 95.9004C131.479 96.143 131.282 96.3397 131.04 96.3397C130.797 96.3397 130.6 96.143 130.6 95.9004C130.6 95.6579 130.797 95.4612 131.04 95.4612C131.282 95.4612 131.479 95.6579 131.479 95.9004Z" fill="#CBCAFF" fill-opacity="0.5"/>
<path d="M154.319 85.9444C154.319 86.1869 154.123 86.3836 153.88 86.3836C153.637 86.3836 153.441 86.1869 153.441 85.9444C153.441 85.7018 153.637 85.5051 153.88 85.5051C154.123 85.5051 154.319 85.7018 154.319 85.9444Z" fill="#CBCAFF" fill-opacity="0.5"/>
<path d="M187.116 80.0878C187.116 80.3304 186.919 80.5271 186.676 80.5271C186.434 80.5271 186.237 80.3304 186.237 80.0878C186.237 79.8453 186.434 79.6486 186.676 79.6486C186.919 79.6486 187.116 79.8453 187.116 80.0878Z" fill="#CBCAFF" fill-opacity="0.5"/>
<path d="M183.602 50.8053C183.602 51.0479 183.405 51.2445 183.163 51.2445C182.92 51.2445 182.723 51.0479 182.723 50.8053C182.723 50.5627 182.92 50.366 183.163 50.366C183.405 50.366 183.602 50.5627 183.602 50.8053Z" fill="#CBCAFF" fill-opacity="0.5"/>
<path d="M156.662 64.2753C156.662 64.5178 156.465 64.7145 156.223 64.7145C155.98 64.7145 155.783 64.5178 155.783 64.2753C155.783 64.0327 155.98 63.836 156.223 63.836C156.465 63.836 156.662 64.0327 156.662 64.2753Z" fill="#CBCAFF" fill-opacity="0.5"/>
<path d="M172.474 68.3748C172.474 68.6174 172.278 68.8141 172.035 68.8141C171.793 68.8141 171.596 68.6174 171.596 68.3748C171.596 68.1322 171.793 67.9356 172.035 67.9356C172.278 67.9356 172.474 68.1322 172.474 68.3748Z" fill="#CBCAFF" fill-opacity="0.5"/>
<path d="M199.414 47.877C199.414 48.1196 199.218 48.3162 198.975 48.3162C198.733 48.3162 198.536 48.1196 198.536 47.877C198.536 47.6344 198.733 47.4378 198.975 47.4378C199.218 47.4378 199.414 47.6344 199.414 47.877Z" fill="#CBCAFF" fill-opacity="0.5"/>
<path d="M181.259 59.0044C181.259 59.247 181.062 59.4436 180.82 59.4436C180.577 59.4436 180.381 59.247 180.381 59.0044C180.381 58.7618 180.577 58.5652 180.82 58.5652C181.062 58.5652 181.259 58.7618 181.259 59.0044Z" fill="#CBCAFF" fill-opacity="0.5"/>
<path d="M187.116 75.9883C187.116 76.2309 186.919 76.4275 186.676 76.4275C186.434 76.4275 186.237 76.2309 186.237 75.9883C186.237 75.7457 186.434 75.549 186.676 75.549C186.919 75.549 187.116 75.7457 187.116 75.9883Z" fill="#CBCAFF" fill-opacity="0.5"/>
<path d="M194.729 62.5183C194.729 62.7609 194.532 62.9575 194.29 62.9575C194.047 62.9575 193.851 62.7609 193.851 62.5183C193.851 62.2757 194.047 62.0791 194.29 62.0791C194.532 62.0791 194.729 62.2757 194.729 62.5183Z" fill="#CBCAFF" fill-opacity="0.5"/>
<path d="M48.3162 121.083C48.3162 121.326 48.1196 121.523 47.877 121.523C47.6344 121.523 47.4378 121.326 47.4378 121.083C47.4378 120.841 47.6344 120.644 47.877 120.644C48.1196 120.644 48.3162 120.841 48.3162 121.083Z" fill="#CBCAFF" fill-opacity="0.5"/>
<path d="M129.136 77.7452C129.136 77.9878 128.939 78.1845 128.697 78.1845C128.454 78.1845 128.258 77.9878 128.258 77.7452C128.258 77.5027 128.454 77.306 128.697 77.306C128.939 77.306 129.136 77.5027 129.136 77.7452Z" fill="#CBCAFF" fill-opacity="0.5"/>
<path d="M89.3119 27.9649C89.3119 28.2074 89.1152 28.4041 88.8726 28.4041C88.63 28.4041 88.4334 28.2074 88.4334 27.9649C88.4334 27.7223 88.63 27.5256 88.8726 27.5256C89.1152 27.5256 89.3119 27.7223 89.3119 27.9649Z" fill="#CBCAFF" fill-opacity="0.5"/>
<path d="M84.6266 60.1757C84.6266 60.4183 84.43 60.6149 84.1874 60.6149C83.9448 60.6149 83.7482 60.4183 83.7482 60.1757C83.7482 59.9331 83.9448 59.7365 84.1874 59.7365C84.43 59.7365 84.6266 59.9331 84.6266 60.1757Z" fill="#CBCAFF" fill-opacity="0.5"/>
<path d="M16.6911 70.7174C16.6911 70.96 16.4944 71.1567 16.2518 71.1567C16.0092 71.1567 15.8126 70.96 15.8126 70.7174C15.8126 70.4748 16.0092 70.2782 16.2518 70.2782C16.4944 70.2782 16.6911 70.4748 16.6911 70.7174Z" fill="#CBCAFF" fill-opacity="0.5"/>
</svg>
