<svg width="500" height="500" viewBox="0 0 500 500" fill="none" xmlns="http://www.w3.org/2000/svg">
<path d="M0 249.577H21.2224M500 249.577H479.626M1.41619 223.425L22.4259 225.636M498.673 275.734L478.353 273.596M5.55031 197.614L26.1595 201.994M494.627 301.558L474.65 297.313M21.7412 148.031L40.9115 156.556M478.604 351.196L459.845 342.854M47.9565 102.765L64.8402 115.025M452.543 396.551L435.807 384.399M82.9351 64.0194L96.815 79.4183M417.696 435.416L403.761 419.956M125.221 33.3679L135.543 51.2185M375.515 466.211L365.046 448.106M172.899 12.1874L179.242 31.6383M327.908 487.553L321.411 467.628L321.395 467.58M276.496 1.40956L274.374 21.6468M224.348 498.683L226.569 477.504M351.576 21.5668L343.379 39.9928M148.557 477.928L156.991 458.968M435.488 82.4469L420.549 95.9252M64.645 417.048L80.1656 403.044M396.919 47.7455L385.036 64.0916M103.213 451.749L115.45 434.917M466.294 124.783L448.872 134.852M33.8388 374.712L51.9266 364.258M494.406 198.089L474.727 202.249M5.72673 301.406L26.1148 297.096M374.776 33.3728L364.711 50.836M125.356 466.122L135.758 448.075M451.895 102.657L435.606 114.528M48.2373 396.837L65.0974 384.55M487.588 172.586L468.485 178.792M12.5445 326.909L32.3998 320.458M417.149 64.1293L403.65 79.1252M82.984 435.365L96.9654 419.833M478.127 147.97L459.783 156.156L459.692 156.197M22.0054 351.525L41.0406 343.03M498.456 223.804L478.402 225.899M1.67663 275.691L22.4131 273.525M224.395 1.31426L226.516 21.5723M276.45 498.597L274.248 477.56L274.242 477.504M302.447 5.56246L298.235 25.3546M198.384 494.614L202.805 473.838M12.3647 172.351L32.3312 178.838M487.898 326.844L468.438 320.522M33.6824 124.675L51.7827 135.121M466.743 374.592L448.902 364.297M64.4174 82.4932L79.9011 96.4212M436.151 416.879L420.715 402.993M103.284 47.5802L115.45 64.3055M397.404 451.924L385.136 435.059M148.466 21.5483L156.848 40.3225M352.31 478.109L343.803 459.055L343.768 458.977M198.151 5.43705L202.418 25.3941M302.68 494.389L298.286 473.834L298.275 473.782M250.501 0L250.494 20.3734M250.35 500L250.356 478.778M327.682 12.3745L321.438 31.5862M173.127 487.888L179.699 467.667" stroke="#C3A679"/>
</svg>
